# Noesis .obj export.
#
mtllib unused.mtl
g
v  -2.312500 -15.468750 18.296875
v  -0.125000 -16.921875 10.406250
v  1.843750 -15.468750 18.296875
v  -2.312500 -15.578125 3.640625
v  -4.750000 -7.437500 14.093750
v  -2.312500 -3.562500 2.921875
v  -0.125000 -0.437500 6.546875
v  0.062500 -2.281250 1.796875
v  1.843750 -3.562500 2.921875
v  0.062500 -15.843750 0.937500
v  1.843750 -15.578125 3.640625
v  1.843750 -15.468750 18.296875
v  -2.312500 -16.140625 22.843750
v  -3.734375 -1.343750 48.656250
v  -0.125000 -12.859375 37.421875
v  -1.828125 -10.750000 46.578125
v  -0.125000 -15.843750 45.015625
v  1.421875 -10.750000 46.578125
v  1.421875 -10.750000 46.578125
v  3.765625 -1.343750 48.656250
v  1.843750 -16.140625 22.843750
v  4.843750 -7.437500 14.093750
v  -0.140625 -7.312500 61.140625
v  0.781250 -1.359375 64.109375
v  0.781250 1.718750 63.671875
v  0.656250 0.968750 72.515625
v  -0.156250 6.390625 63.546875
v  -0.125000 10.203125 16.312500
v  -0.125000 6.859375 11.281250
v  0.625000 -3.140625 67.640625
v  -0.203125 -3.093750 75.250000
v  -0.140625 3.796875 83.000000
v  -1.109375 0.968750 72.515625
v  -0.234375 -18.750000 22.843750
v  1.843750 -15.468750 18.296875
v  1.843750 -16.140625 22.843750
v  1.843750 -20.093750 21.000000
v  -0.078125 -25.328125 26.468750
v  -2.312500 -20.093750 21.000000
v  -2.312500 -15.468750 18.296875
v  -2.312500 -16.140625 22.843750
v  1.843750 -16.140625 22.843750
v  -1.203125 -1.359375 64.109375
v  -1.203125 1.718750 63.671875
v  -1.078125 -3.140625 67.640625
v  -0.203125 -4.468750 74.750000
v  -0.203125 -11.062500 80.500000
v  -0.093750 -14.671875 77.453125
v  6.125000 -6.640625 20.421875
v  7.406250 -7.921875 22.437500
v  7.453125 -5.734375 27.093750
v  3.375000 -11.515625 19.640625
v  3.921875 -9.234375 17.734375
v  -6.187500 -6.640625 20.421875
v  -3.421875 -11.515625 19.640625
v  -3.968750 -9.234375 17.734375
v  -7.453125 -7.921875 22.437500
v  -7.500000 -5.734375 27.093750
v  -0.156250 -4.015625 65.328125
v  0.062500 -18.265625 21.093750
v  -1.203125 1.718750 63.671875
v  0.781250 1.718750 63.671875
v  -0.156250 6.390625 63.546875
v  -1.109375 0.968750 72.515625
v  0.656250 0.968750 72.515625
v  -0.140625 3.796875 83.000000
v  0.781250 -1.359375 64.109375
v  -1.203125 -1.359375 64.109375
v  -0.156250 -4.015625 65.328125
v  0.625000 -3.140625 67.640625
v  -1.078125 -3.140625 67.640625
v  -0.093750 -14.671875 77.453125
v  1.843750 -15.468750 18.296875
v  -2.312500 -20.093750 21.000000
v  -2.312500 -15.468750 18.296875
v  1.843750 -20.093750 21.000000
v  0.062500 -22.765625 21.468750
v  -0.078125 -25.328125 26.468750
v  8.265625 -6.671875 20.265625
v  3.921875 -9.234375 17.734375
v  6.125000 -6.640625 20.421875
v  3.375000 -11.515625 19.640625
v  7.406250 -7.921875 22.437500
v  7.453125 -5.734375 27.093750
v  -8.312500 -6.671875 20.265625
v  -6.187500 -6.640625 20.421875
v  -3.968750 -9.234375 17.734375
v  -7.500000 -5.734375 27.093750
v  -7.453125 -7.921875 22.437500
v  -3.421875 -11.515625 19.640625
v  -0.093750 2.968750 91.125000
v  -0.203125 -0.531250 86.953125
v  -0.140625 -17.546875 83.171875

vt  0.597700 -0.796300 0.000000
vt  0.642200 -0.884100 0.000000
vt  0.687400 -0.797800 0.000000
vt  0.576500 -0.955300 0.000000
vt  0.411400 -0.837800 0.000000
vt  0.325500 -0.965600 0.000000
vt  0.243300 -0.927700 0.000000
vt  0.295200 -0.992200 0.000000
vt  0.325500 -0.965600 0.000000
vt  0.610700 -0.994200 0.000000
vt  0.576500 -0.955300 0.000000
vt  0.597700 -0.796300 0.000000
vt  0.610100 -0.748700 0.000000
vt  0.284100 -0.469500 0.000000
vt  0.552800 -0.587900 0.000000
vt  0.491300 -0.488200 0.000000
vt  0.611100 -0.510200 0.000000
vt  0.551000 -0.465800 0.000000
vt  0.491300 -0.488200 0.000000
vt  0.284100 -0.469500 0.000000
vt  0.610100 -0.748700 0.000000
vt  0.411400 -0.837800 0.000000
vt  0.410000 -0.328600 0.000000
vt  0.275100 -0.301700 0.000000
vt  0.208300 -0.307000 0.000000
vt  0.232400 -0.211400 0.000000
vt  0.104800 -0.308800 0.000000
vt  0.014700 -0.819300 0.000000
vt  0.092900 -0.873500 0.000000
vt  0.318300 -0.265300 0.000000
vt  0.323200 -0.182400 0.000000
vt  0.175300 -0.098100 0.000000
vt  0.232400 -0.211400 0.000000
vt  0.574200 -0.051100 0.000000
vt  0.445300 -0.052700 0.000000
vt  0.526300 -0.024100 0.000000
vt  0.545600 -0.081200 0.000000
vt  0.715000 -0.091400 0.000000
vt  0.545600 -0.081200 0.000000
vt  0.445300 -0.052700 0.000000
vt  0.526300 -0.024100 0.000000
vt  0.616300 -0.021800 0.000000
vt  0.275100 -0.301700 0.000000
vt  0.208300 -0.307000 0.000000
vt  0.318300 -0.265300 0.000000
vt  0.352100 -0.188500 0.000000
vt  0.499500 -0.129500 0.000000
vt  0.576900 -0.162400 0.000000
vt  0.116300 -0.226200 0.000000
vt  0.170400 -0.215100 0.000000
vt  0.182400 -0.160000 0.000000
vt  0.171000 -0.280700 0.000000
vt  0.107800 -0.272800 0.000000
vt  0.116300 -0.226200 0.000000
vt  0.171000 -0.280700 0.000000
vt  0.107800 -0.272800 0.000000
vt  0.170400 -0.215100 0.000000
vt  0.182400 -0.160000 0.000000
vt  0.333800 -0.285400 0.000000
vt  0.684100 -0.761600 0.000000
vt  0.037400 -0.242100 0.000000
vt  0.080500 -0.241700 0.000000
vt  0.061900 -0.292300 0.000000
vt  0.035900 -0.146300 0.000000
vt  0.074200 -0.146000 0.000000
vt  0.052500 -0.029100 0.000000
vt  0.080500 -0.241700 0.000000
vt  0.037400 -0.242100 0.000000
vt  0.061900 -0.292300 0.000000
vt  0.074200 -0.146000 0.000000
vt  0.035900 -0.146300 0.000000
vt  0.052500 -0.029100 0.000000
vt  0.544800 -0.337200 0.000000
vt  0.450400 -0.281600 0.000000
vt  0.454300 -0.339000 0.000000
vt  0.560000 -0.289400 0.000000
vt  0.515900 -0.263700 0.000000
vt  0.532600 -0.199300 0.000000
vt  0.364800 -0.079700 0.000000
vt  0.344600 -0.131500 0.000000
vt  0.322400 -0.076100 0.000000
vt  0.414500 -0.144600 0.000000
vt  0.413500 -0.069500 0.000000
vt  0.416400 -0.011400 0.000000
vt  0.364800 -0.079700 0.000000
vt  0.322400 -0.076100 0.000000
vt  0.344600 -0.131500 0.000000
vt  0.416400 -0.011400 0.000000
vt  0.413500 -0.069500 0.000000
vt  0.414500 -0.144600 0.000000
vt  0.194100 -0.010600 0.000000
vt  0.269400 -0.055900 0.000000
vt  0.638200 -0.100100 0.000000

vn  -0.746898 -0.664225 -0.030795
vn  0.067697 -0.997535 0.018479
vn  0.727249 -0.662974 -0.177691
vn  -0.801962 -0.552994 -0.225951
vn  -0.993091 0.085857 -0.079994
vn  -0.833427 0.311118 -0.456733
vn  0.039697 0.920049 -0.389786
vn  0.082999 0.581896 -0.809017
vn  0.871488 0.265463 -0.412356
vn  0.087153 -0.519168 -0.850217
vn  0.862872 -0.463352 -0.201882
vn  0.727249 -0.662974 -0.177691
vn  -0.796024 -0.520437 0.309017
vn  -0.992034 -0.085766 0.092268
vn  0.066774 -0.983938 0.165554
vn  -0.769421 -0.559017 0.309017
vn  0.032034 -0.742454 0.669131
vn  0.802375 -0.510590 0.309017
vn  0.802375 -0.510590 0.309017
vn  0.992857 -0.024469 0.116773
vn  0.844346 -0.453404 0.285492
vn  0.994220 0.024502 -0.104529
vn  0.038102 -0.883088 0.467658
vn  0.966192 -0.143891 0.213933
vn  0.734397 0.547520 0.401101
vn  0.922431 0.383749 0.043107
vn  -0.004150 0.673683 0.739009
vn  -0.006062 0.984068 -0.177691
vn  -0.004315 0.700530 -0.713610
vn  0.884649 -0.420285 -0.201882
vn  0.029041 -0.673069 0.739009
vn  0.018470 0.999355 -0.030795
vn  -0.822488 0.567147 0.043107
vn  0.001062 0.024615 0.999696
vn  0.727249 -0.662974 -0.177691
vn  0.844346 -0.453404 0.285492
vn  0.912215 -0.182181 -0.366979
vn  0.168763 -0.688911 0.704926
vn  -0.688632 -0.403258 -0.602635
vn  -0.746898 -0.664225 -0.030795
vn  -0.796024 -0.520437 0.309017
vn  0.844346 -0.453404 0.285492
vn  -0.912203 -0.392746 0.116773
vn  -0.841365 0.362246 0.401101
vn  -0.929024 -0.346804 -0.128999
vn  0.005385 0.291340 0.956604
vn  0.007516 0.406667 0.913545
vn  0.031677 -0.734162 -0.678235
vn  -0.758176 0.641509 0.116773
vn  0.074311 -0.801945 0.592758
vn  0.260714 0.492770 0.830184
vn  -0.307890 -0.840548 0.445738
vn  -0.229110 0.541295 -0.809017
vn  0.781363 0.613055 0.116773
vn  0.379145 -0.810905 0.445738
vn  0.235762 0.538431 -0.809017
vn  -0.004961 -0.805366 0.592758
vn  -0.229884 0.507886 0.830184
vn  0.010428 -0.073113 0.997269
vn  0.087024 -0.939131 0.332355
vn  -0.841365 0.362246 0.401101
vn  0.734397 0.547520 0.401101
vn  -0.004150 0.673683 0.739009
vn  -0.822488 0.567147 0.043107
vn  0.922431 0.383749 0.043107
vn  0.018470 0.999355 -0.030795
vn  0.966192 -0.143891 0.213933
vn  -0.912203 -0.392746 0.116773
vn  0.010428 -0.073113 0.997269
vn  0.884649 -0.420285 -0.201882
vn  -0.929024 -0.346804 -0.128999
vn  0.031677 -0.734162 -0.678235
vn  0.727249 -0.662974 -0.177691
vn  -0.688632 -0.403258 -0.602635
vn  -0.746898 -0.664225 -0.030795
vn  0.912215 -0.182181 -0.366979
vn  0.077600 -0.659994 -0.747253
vn  0.168763 -0.688911 0.704926
vn  0.877815 0.021634 -0.478512
vn  -0.229110 0.541295 -0.809017
vn  -0.758176 0.641509 0.116773
vn  -0.307890 -0.840548 0.445738
vn  0.074311 -0.801945 0.592758
vn  0.260714 0.492770 0.830184
vn  -0.876416 0.054055 -0.478512
vn  0.781363 0.613055 0.116773
vn  0.235762 0.538431 -0.809017
vn  -0.229884 0.507886 0.830184
vn  -0.004961 -0.805366 0.592758
vn  0.379145 -0.810905 0.445738
vn  -0.012320 -0.000000 -0.999924
vn  0.042870 -0.993597 -0.104529
vn  -0.012320 -0.000000 -0.999924

g mahimahi
usemtl models/objects/hongkong/misc/mahi
f  1/1/1 2/2/2 3/3/3
f  4/4/4 2/2/2 1/1/1
f  5/5/5 4/4/4 1/1/1
f  6/6/6 4/4/4 5/5/5
f  7/7/7 6/6/6 5/5/5
f  8/8/8 6/6/6 7/7/7
f  9/9/9 8/8/8 7/7/7
f  10/10/10 8/8/8 9/9/9
f  4/4/4 6/6/6 10/10/10
f  2/2/2 4/4/4 10/10/10
f  10/10/10 6/6/6 8/8/8
f  2/2/2 10/10/10 11/11/11
f  11/11/11 10/10/10 9/9/9
f  12/12/12 2/2/2 11/11/11
f  13/13/13 5/5/5 1/1/1
f  14/14/14 5/5/5 13/13/13
f  15/15/15 14/14/14 13/13/13
f  16/16/16 14/14/14 15/15/15
f  17/17/17 16/16/16 15/15/15
f  18/18/18 16/16/16 17/17/17
f  15/15/15 19/19/19 17/17/17
f  20/20/20 19/19/19 15/15/15
f  21/21/21 20/20/20 15/15/15
f  12/12/12 22/22/22 21/21/21
f  22/22/22 20/20/20 21/21/21
f  11/11/11 22/22/22 12/12/12
f  11/11/11 9/9/9 22/22/22
f  22/22/22 9/9/9 7/7/7
f  20/20/20 23/23/23 19/19/19
f  14/14/14 16/16/16 23/23/23
f  23/23/23 16/16/16 18/18/18
f  24/24/24 23/23/23 20/20/20
f  25/25/25 24/24/24 20/20/20
f  26/26/26 24/24/24 25/25/25
f  20/20/20 27/27/27 25/25/25
f  22/22/22 28/28/28 20/20/20
f  28/28/28 14/14/14 27/27/27
f  28/28/28 5/5/5 14/14/14
f  28/28/28 27/27/27 20/20/20
f  5/5/5 29/29/29 7/7/7
f  7/7/7 29/29/29 22/22/22
f  29/29/29 28/28/28 22/22/22
f  29/29/29 5/5/5 28/28/28
f  26/26/26 30/30/30 24/24/24
f  31/31/31 30/30/30 26/26/26
f  32/32/32 31/31/31 26/26/26
f  33/33/33 31/31/31 32/32/32
f  34/34/34 35/35/35 36/36/36
f  37/37/37 35/35/35 34/34/34
f  38/38/38 37/37/37 34/34/34
f  34/34/34 39/39/39 38/38/38
f  40/40/40 39/39/39 34/34/34
f  41/41/41 40/40/40 34/34/34
f  42/42/42 41/41/41 34/34/34
f  43/43/43 14/14/14 23/23/23
f  33/33/33 44/44/44 43/43/43
f  44/44/44 14/14/14 43/43/43
f  27/27/27 14/14/14 44/44/44
f  45/45/45 33/33/33 43/43/43
f  31/31/31 33/33/33 45/45/45
f  46/46/46 31/31/31 45/45/45
f  30/30/30 31/31/31 46/46/46
f  47/47/47 30/30/30 46/46/46
f  45/45/45 47/47/47 46/46/46
f  48/48/48 30/30/30 47/47/47
f  45/45/45 48/48/48 47/47/47
f  49/49/49 50/50/50 51/51/51
f  52/52/52 50/50/50 49/49/49
f  53/53/53 52/52/52 49/49/49
f  54/54/54 55/55/55 56/56/56
f  57/57/57 55/55/55 54/54/54
f  58/58/58 57/57/57 54/54/54
f  23/23/23 59/59/59 43/43/43
f  24/24/24 59/59/59 23/23/23
f  15/15/15 60/60/60 21/21/21
f  13/13/13 60/60/60 15/15/15
f  61/61/61 62/62/62 63/63/63
f  64/64/64 62/62/62 61/61/61
f  64/64/64 65/65/65 62/62/62
f  66/66/66 65/65/65 64/64/64
f  67/67/67 68/68/68 69/69/69
f  70/70/70 68/68/68 67/67/67
f  70/70/70 71/71/71 68/68/68
f  72/72/72 71/71/71 70/70/70
f  73/73/73 74/74/74 75/75/75
f  76/76/76 74/74/74 73/73/73
f  74/74/74 77/77/77 78/78/78
f  76/76/76 77/77/77 74/74/74
f  78/78/78 77/77/77 76/76/76
f  79/79/79 80/80/80 81/81/81
f  82/82/82 80/80/80 79/79/79
f  83/83/83 82/82/82 79/79/79
f  83/83/83 79/79/79 84/84/84
f  84/84/84 79/79/79 81/81/81
f  85/85/85 86/86/86 87/87/87
f  88/88/88 86/86/86 85/85/85
f  89/89/89 88/88/88 85/85/85
f  87/87/87 90/90/90 85/85/85
f  85/85/85 90/90/90 89/89/89
f  91/91/91 32/32/32 92/92/92
f  92/92/92 32/32/32 91/91/91
f  32/32/32 31/31/31 92/92/92
f  92/92/92 31/31/31 32/32/32
f  47/47/47 93/93/93 48/48/48
f  48/48/48 93/93/93 47/47/47

g
v  -5.921875 -0.046875 97.703125
v  -3.765625 -2.734375 97.703125
v  -2.687500 -0.390625 98.250000
v  -3.718750 -1.062500 67.640625
v  -3.765625 -2.734375 97.703125
v  -5.921875 -0.046875 97.703125
v  -1.859375 -3.375000 67.140625
v  -1.281250 -0.734375 69.343750
v  -2.687500 -0.390625 98.250000
v  -5.921875 -0.046875 97.703125
v  -3.718750 -1.062500 67.640625
v  0.203125 0.093750 64.015625
v  -1.859375 -3.375000 67.140625
v  -3.718750 -1.062500 67.640625
v  1.343750 -3.437500 66.796875
v  2.312500 -0.750000 66.796875
v  -1.281250 -0.734375 69.343750
v  0.906250 2.500000 66.796875
v  -2.750000 1.687500 67.140625

vt  0.633200 -0.335900 0.000000
vt  0.515100 -0.386300 0.000000
vt  0.624300 -0.410200 0.000000
vt  0.835900 -0.938300 0.000000
vt  0.715800 -0.295100 0.000000
vt  0.832600 -0.283100 0.000000
vt  0.714500 -0.988200 0.000000
vt  0.835900 -0.938300 0.000000
vt  0.832600 -0.283100 0.000000
vt  0.980500 -0.291700 0.000000
vt  0.950700 -0.974100 0.000000
vt  0.800200 -0.216700 0.000000
vt  0.845300 -0.112400 0.000000
vt  0.692300 -0.115400 0.000000
vt  0.965500 -0.173800 0.000000
vt  0.928200 -0.250200 0.000000
vt  0.800200 -0.216700 0.000000
vt  0.722300 -0.281700 0.000000
vt  0.624600 -0.184700 0.000000

vn  -0.518145 0.686135 0.510631
vn  0.082596 -0.891345 0.445738
vn  0.601206 0.304001 0.739009
vn  -0.977552 -0.060294 -0.201882
vn  0.082596 -0.891345 0.445738
vn  -0.518145 0.686135 0.510631
vn  -0.124075 -0.953789 -0.273663
vn  0.496207 0.333216 0.801714
vn  0.601206 0.304001 0.739009
vn  -0.518145 0.686135 0.510631
vn  -0.977552 -0.060294 -0.201882
vn  -0.036613 0.004992 -0.999317
vn  -0.124075 -0.953789 -0.273663
vn  -0.977552 -0.060294 -0.201882
vn  0.609808 -0.787160 0.092268
vn  0.981525 0.024190 0.189801
vn  0.496207 0.333216 0.801714
vn  0.477965 0.851928 0.213933
vn  -0.638478 0.764089 0.092268

g rope
usemtl models/objects/hongkong/misc/mahi
f  94/94/94 95/95/95 96/96/96
f  97/97/97 98/98/98 99/99/99
f  100/100/100 98/98/98 97/97/97
f  101/101/101 98/98/98 100/100/100
f  102/102/102 98/98/98 101/101/101
f  103/103/103 102/102/102 101/101/101
f  104/104/104 103/103/103 101/101/101
f  105/105/105 106/106/106 107/107/107
f  108/108/108 106/106/106 105/105/105
f  109/109/109 108/108/108 105/105/105
f  106/106/106 108/108/108 110/110/110
f  110/110/110 108/108/108 109/109/109
f  111/111/111 110/110/110 109/109/109
f  109/109/109 105/105/105 111/111/111
f  105/105/105 112/112/112 111/111/111
f  112/112/112 110/110/110 111/111/111
f  110/110/110 112/112/112 107/107/107
f  107/107/107 112/112/112 105/105/105

g
