# Noesis .obj export.
#
mtllib unused.mtl
g
v  15.375000 -36.687500 -2.859375
v  8.062500 -31.609375 -3.984375
v  8.796875 -34.343750 -2.093750
v  14.671875 -33.875000 -6.406250
v  17.593750 -40.687500 -7.312500
v  18.625000 -39.671875 -8.468750
v  17.953125 -42.593750 -10.203124
v  17.796875 -39.296875 -10.281250
v  16.250000 -40.093750 -10.249999
v  10.984375 -37.062500 -11.203125
v  -8.031250 -31.609375 -3.984375
v  -15.328125 -36.687500 -2.859375
v  -8.765625 -34.343750 -2.093750
v  -14.640625 -33.875000 -6.406250
v  -12.828125 -34.578125 -9.984375
v  -18.578125 -39.671875 -8.468750
v  -17.750000 -39.296875 -10.281250
v  -17.906250 -42.593750 -10.203124
v  -16.203125 -40.093750 -10.249999
v  10.984375 -37.062500 -11.203125
v  8.796875 -34.343750 -2.093750
v  6.703125 -35.437500 -7.031250
v  13.062500 -37.734375 -6.250000
v  16.250000 -40.093750 -10.249999
v  16.515625 -40.218750 -8.453124
v  17.953125 -42.593750 -10.203124
v  17.593750 -40.687500 -7.312500
v  -8.765625 -34.343750 -2.093750
v  -10.937500 -37.062500 -11.203125
v  -6.671875 -35.437500 -7.031250
v  -13.015625 -37.734375 -6.250000
v  -15.328125 -36.687500 -2.859375
v  -16.468750 -40.218750 -8.453124
v  -17.546875 -40.687500 -7.312500
v  -17.906250 -42.593750 -10.203124
v  6.671875 -32.828125 -7.140625
v  6.703125 -35.437500 -7.031250
v  12.875000 -34.578125 -9.984375
v  15.375000 -36.687500 -2.859375
v  -16.203125 -40.093750 -10.249999
v  -17.546875 -40.687500 -7.312500
v  -10.937500 -37.062500 -11.203125
v  -6.625000 -32.828125 -7.140625
v  -6.671875 -35.437500 -7.031250
v  0.093750 -44.140625 24.687500
v  1.281250 -47.250000 23.828125
v  0.093750 -41.671875 18.640625
v  0.093750 -51.734375 25.687500
v  -1.062500 -47.250000 23.828125
v  1.281250 -47.250000 23.828125
v  0.093750 -36.250000 18.078125
v  8.359375 -68.140625 1.796876
v  3.234375 -89.265625 0.968751
v  4.421875 -68.500000 -6.203124
v  2.796875 -89.421875 3.734376
v  4.421875 -67.796875 9.812501
v  -0.046875 -89.531250 5.359376
v  -0.046875 -67.593750 14.484376
v  -2.906250 -89.421875 3.734376
v  -4.531250 -67.796875 9.812501
v  -3.359375 -89.265625 0.968751
v  -8.468750 -68.140625 1.796876
v  -2.906250 -89.093750 -1.781249
v  -4.531250 -68.500000 -6.203124
v  -0.046875 -88.984375 -3.390624
v  -0.046875 -68.703125 -10.874999
v  2.796875 -89.093750 -1.781249
v  1.859375 -108.093750 -1.937499
v  -0.046875 -107.562500 -4.437499
v  2.281250 -112.218750 -3.749999
v  2.281250 -113.765625 -14.218749
v  -0.046875 -115.515625 -6.171874
v  -0.046875 -116.750000 -17.640623
v  -2.515625 -113.765625 -14.218749
v  -0.046875 -119.468750 -28.609373
v  -0.046875 -111.218750 -19.703123
v  -0.046875 -108.437500 -11.078124
v  -2.515625 -112.218750 -3.749999
v  -2.515625 -118.750000 2.593751
v  -0.046875 -123.546875 0.718751
v  -0.046875 -142.125000 5.796877
v  2.281250 -118.750000 2.593751
v  -0.046875 -119.890625 8.484376
v  -0.046875 -110.828125 3.984376
v  7.625000 -47.640625 -7.500000
v  -0.046875 -48.187500 -19.984375
v  -7.734375 -47.640625 -7.500000
v  -10.937500 -47.281250 0.890626
v  -7.734375 -46.906250 9.281251
v  -0.046875 -46.375000 21.781250
v  7.625000 -46.906250 9.281251
v  10.812500 -47.281250 0.890626
v  10.812500 -24.687500 -0.078125
v  5.187500 -23.250000 12.187500
v  -0.046875 -23.031250 17.453125
v  -5.296875 -23.250000 12.187500
v  -0.046875 -0.875000 -1.453125
v  -2.109375 -3.656250 -1.343750
v  -0.046875 -24.562500 -17.718750
v  -5.296875 -24.328125 -12.453125
v  -10.937500 -24.687500 -0.078125
v  2.000000 -3.656250 -1.343750
v  5.187500 -24.328125 -12.453125
v  -0.046875 -108.640625 0.562501
v  -1.984375 -108.093750 -1.937499

vt  0.013300 -0.250500 0.000000
vt  0.109800 -0.353900 0.000000
vt  0.031900 -0.336400 0.000000
vt  0.118200 -0.263100 0.000000
vt  0.113200 -0.178000 0.000000
vt  0.160800 -0.179800 0.000000
vt  0.205100 -0.149300 0.000000
vt  0.208600 -0.188800 0.000000
vt  0.245800 -0.191400 0.000000
vt  0.298000 -0.267900 0.000000
vt  0.109800 -0.353900 0.000000
vt  0.013300 -0.250500 0.000000
vt  0.031900 -0.336400 0.000000
vt  0.118200 -0.263100 0.000000
vt  0.215500 -0.269200 0.000000
vt  0.160800 -0.179800 0.000000
vt  0.208600 -0.188800 0.000000
vt  0.205100 -0.149300 0.000000
vt  0.245800 -0.191400 0.000000
vt  0.488700 -0.347400 0.000000
vt  0.680400 -0.416500 0.000000
vt  0.547800 -0.416500 0.000000
vt  0.618800 -0.339300 0.000000
vt  0.551100 -0.280000 0.000000
vt  0.595100 -0.282400 0.000000
vt  0.567700 -0.244700 0.000000
vt  0.629300 -0.272200 0.000000
vt  0.680400 -0.416500 0.000000
vt  0.488700 -0.347400 0.000000
vt  0.547800 -0.416500 0.000000
vt  0.618800 -0.339300 0.000000
vt  0.720900 -0.334200 0.000000
vt  0.595100 -0.282400 0.000000
vt  0.629300 -0.272200 0.000000
vt  0.567700 -0.244700 0.000000
vt  0.204000 -0.350400 0.000000
vt  0.268300 -0.342900 0.000000
vt  0.215500 -0.269200 0.000000
vt  0.720900 -0.334200 0.000000
vt  0.551100 -0.280000 0.000000
vt  0.113200 -0.178000 0.000000
vt  0.298000 -0.267900 0.000000
vt  0.204000 -0.350400 0.000000
vt  0.268300 -0.342900 0.000000
vt  0.015600 -0.445800 0.000000
vt  0.080500 -0.419600 0.000000
vt  0.106300 -0.510800 0.000000
vt  0.082800 -0.359500 0.000000
vt  0.080500 -0.419600 0.000000
vt  0.137000 -0.416200 0.000000
vt  0.046600 -0.569700 0.000000
vt  0.340700 -0.518700 0.000000
vt  0.353400 -0.372100 0.000000
vt  0.464600 -0.515600 0.000000
vt  0.313900 -0.373000 0.000000
vt  0.215800 -0.522100 0.000000
vt  0.268000 -0.370900 0.000000
vt  0.125700 -0.522100 0.000000
vt  0.313900 -0.373000 0.000000
vt  0.215800 -0.522100 0.000000
vt  0.353400 -0.372100 0.000000
vt  0.340700 -0.518700 0.000000
vt  0.392200 -0.374100 0.000000
vt  0.464600 -0.515600 0.000000
vt  0.437300 -0.372700 0.000000
vt  0.554200 -0.511900 0.000000
vt  0.392200 -0.374100 0.000000
vt  0.385600 -0.242600 0.000000
vt  0.430400 -0.247600 0.000000
vt  0.413200 -0.213500 0.000000
vt  0.563900 -0.204700 0.000000
vt  0.450700 -0.186200 0.000000
vt  0.613200 -0.178700 0.000000
vt  0.563900 -0.204700 0.000000
vt  0.765300 -0.168200 0.000000
vt  0.643400 -0.225000 0.000000
vt  0.520300 -0.244600 0.000000
vt  0.413200 -0.213500 0.000000
vt  0.327200 -0.166600 0.000000
vt  0.360000 -0.130100 0.000000
vt  0.275000 -0.006100 0.000000
vt  0.327200 -0.166600 0.000000
vt  0.239700 -0.159400 0.000000
vt  0.302500 -0.222800 0.000000
vt  0.473900 -0.658800 0.000000
vt  0.674800 -0.659200 0.000000
vt  0.473900 -0.658800 0.000000
vt  0.348500 -0.660700 0.000000
vt  0.223100 -0.664100 0.000000
vt  0.018100 -0.670300 0.000000
vt  0.223100 -0.664100 0.000000
vt  0.348500 -0.660700 0.000000
vt  0.381500 -0.812500 0.000000
vt  0.193200 -0.823500 0.000000
vt  0.102400 -0.839500 0.000000
vt  0.193200 -0.823500 0.000000
vt  0.389800 -0.990000 0.000000
vt  0.389800 -0.963800 0.000000
vt  0.662500 -0.836200 0.000000
vt  0.569800 -0.820900 0.000000
vt  0.381500 -0.812500 0.000000
vt  0.389800 -0.963800 0.000000
vt  0.569800 -0.820900 0.000000
vt  0.341000 -0.241400 0.000000
vt  0.385600 -0.242600 0.000000

vn  0.183182 -0.261793 0.947581
vn  0.308113 0.936852 0.165453
vn  -0.212312 -0.786745 0.579617
vn  0.720614 0.678235 0.143916
vn  0.445331 -0.489293 0.749848
vn  0.961534 0.273663 0.023697
vn  0.153003 -0.932472 -0.327239
vn  0.500117 0.201882 -0.842096
vn  -0.493755 -0.704926 -0.509202
vn  -0.411424 -0.510631 -0.754974
vn  -0.306051 0.936852 0.169237
vn  -0.148042 -0.261793 0.953702
vn  0.233585 -0.786745 0.571376
vn  -0.714804 0.678235 0.170445
vn  -0.288860 0.747253 -0.598476
vn  -0.961169 0.273663 0.035541
vn  -0.425726 0.201882 -0.882043
vn  -0.124249 -0.932472 -0.339202
vn  0.524165 -0.704926 -0.477840
vn  -0.411424 -0.510631 -0.754974
vn  -0.212312 -0.786745 0.579617
vn  -0.581352 -0.739009 -0.340435
vn  -0.432882 -0.869089 0.239370
vn  -0.493755 -0.704926 -0.509202
vn  -0.601870 -0.755383 0.259133
vn  0.153003 -0.932472 -0.327239
vn  0.445331 -0.489293 0.749848
vn  0.233585 -0.786745 0.571376
vn  0.474924 -0.510631 -0.716731
vn  0.601207 -0.739009 -0.304001
vn  0.441431 -0.869089 0.223211
vn  -0.148042 -0.261793 0.953702
vn  0.611034 -0.755383 0.236716
vn  -0.436060 -0.489293 0.755278
vn  -0.124249 -0.932472 -0.339202
vn  -0.303394 0.562593 -0.769052
vn  -0.581352 -0.739009 -0.340435
vn  0.339335 0.747253 -0.571372
vn  0.183182 -0.261793 0.947581
vn  0.524165 -0.704926 -0.477840
vn  -0.436060 -0.489293 0.755278
vn  0.474924 -0.510631 -0.716731
vn  0.368507 0.562593 -0.740062
vn  0.601207 -0.739009 -0.304001
vn  -0.005548 0.434677 0.900570
vn  0.851902 -0.332355 -0.404727
vn  0.018353 -0.116773 -0.992989
vn  -0.005514 -0.445738 0.895146
vn  -0.825370 -0.332355 -0.456403
vn  0.851902 -0.332355 -0.404727
vn  -0.012320 0.999924 -0.000000
vn  0.981823 -0.189801 0.000000
vn  0.985004 -0.165554 -0.048580
vn  0.860615 -0.213933 -0.462141
vn  0.819438 -0.237935 0.521448
vn  0.787141 -0.189801 0.586843
vn  0.180512 -0.309017 0.933769
vn  0.087023 -0.332355 0.939131
vn  -0.771479 -0.237935 0.590091
vn  -0.847243 -0.189801 0.496140
vn  -0.982536 -0.165554 0.084944
vn  -0.979960 -0.189801 0.060442
vn  -0.797853 -0.165554 -0.579674
vn  -0.764919 -0.189801 -0.615528
vn  -0.103481 -0.141206 -0.984557
vn  -0.051792 -0.355491 -0.933244
vn  0.818728 -0.165554 -0.549796
vn  0.991806 0.104529 -0.073448
vn  0.030947 0.696134 -0.717245
vn  0.999526 -0.018479 -0.024633
vn  0.997705 -0.067708 0.000000
vn  0.024703 -0.963493 -0.266591
vn  0.015836 -0.985162 0.170894
vn  -0.995813 -0.067708 -0.061420
vn  0.036716 -0.985162 -0.167652
vn  0.032765 0.875117 -0.482801
vn  0.021401 0.972728 -0.230958
vn  -0.993690 -0.018479 -0.110634
vn  -0.992034 -0.092268 -0.085766
vn  0.038587 -0.445738 -0.894331
vn  0.067027 -0.687237 -0.723335
vn  0.995432 -0.092268 -0.024532
vn  0.018185 0.177691 0.983918
vn  0.014468 0.622113 0.782794
vn  0.909649 -0.092268 -0.405001
vn  0.211790 -0.141206 -0.967061
vn  -0.857025 -0.116773 -0.501868
vn  -0.986605 -0.092268 -0.134529
vn  -0.897058 -0.043107 0.439807
vn  -0.153040 -0.067708 0.985898
vn  0.878990 -0.067708 0.472008
vn  0.993015 -0.092268 0.073537
vn  0.991645 0.128999 -0.000000
vn  0.826296 0.201882 0.525812
vn  0.187851 0.478512 0.857752
vn  -0.791826 0.273663 0.546004
vn  0.005680 0.998103 -0.061298
vn  -0.854134 0.478512 -0.203669
vn  -0.141259 0.389786 -0.910007
vn  -0.799443 0.153392 -0.580829
vn  -0.990967 0.128999 -0.036643
vn  0.859461 0.500000 0.106424
vn  0.813091 0.201882 -0.546011
vn  0.018260 0.153392 0.987997
vn  -0.985403 0.104529 -0.134365

g tuna
usemtl models/objects/hongkong/misc/tuna
f  1/1/1 2/2/2 3/3/3
f  4/4/4 2/2/2 1/1/1
f  5/5/5 4/4/4 1/1/1
f  6/6/6 4/4/4 5/5/5
f  7/7/7 6/6/6 5/5/5
f  8/8/8 6/6/6 7/7/7
f  9/9/9 8/8/8 7/7/7
f  10/10/10 8/8/8 9/9/9
f  11/11/11 12/12/12 13/13/13
f  14/14/14 12/12/12 11/11/11
f  15/15/15 14/14/14 11/11/11
f  16/16/16 14/14/14 15/15/15
f  17/17/17 16/16/16 15/15/15
f  18/18/18 16/16/16 17/17/17
f  19/19/19 18/18/18 17/17/17
f  20/20/20 21/21/21 22/22/22
f  23/23/23 21/21/21 20/20/20
f  24/24/24 23/23/23 20/20/20
f  25/25/25 23/23/23 24/24/24
f  26/26/26 25/25/25 24/24/24
f  27/27/27 25/25/25 26/26/26
f  28/28/28 29/29/29 30/30/30
f  31/31/31 29/29/29 28/28/28
f  32/32/32 31/31/31 28/28/28
f  33/33/33 31/31/31 32/32/32
f  34/34/34 33/33/33 32/32/32
f  35/35/35 33/33/33 34/34/34
f  36/36/36 10/10/10 37/37/37
f  38/38/38 10/10/10 36/36/36
f  2/2/2 38/38/38 36/36/36
f  4/4/4 38/38/38 2/2/2
f  4/4/4 6/6/6 38/38/38
f  6/6/6 8/8/8 38/38/38
f  38/38/38 8/8/8 10/10/10
f  23/23/23 25/25/25 39/39/39
f  39/39/39 25/25/25 27/27/27
f  21/21/21 23/23/23 39/39/39
f  31/31/31 33/33/33 40/40/40
f  29/29/29 31/31/31 40/40/40
f  40/40/40 33/33/33 35/35/35
f  41/41/41 16/16/16 18/18/18
f  14/14/14 16/16/16 41/41/41
f  12/12/12 14/14/14 41/41/41
f  17/17/17 15/15/15 42/42/42
f  19/19/19 17/17/17 42/42/42
f  15/15/15 43/43/43 42/42/42
f  11/11/11 43/43/43 15/15/15
f  42/42/42 43/43/43 44/44/44
f  45/45/45 46/46/46 47/47/47
f  48/48/48 46/46/46 45/45/45
f  45/45/45 47/47/47 49/49/49
f  49/49/49 48/48/48 45/45/45
f  47/47/47 50/50/50 49/49/49
f  50/50/50 48/48/48 49/49/49
f  47/47/47 51/51/51 45/45/45
f  51/51/51 47/47/47 45/45/45
f  52/52/52 53/53/53 54/54/54
f  55/55/55 53/53/53 52/52/52
f  56/56/56 55/55/55 52/52/52
f  57/57/57 55/55/55 56/56/56
f  58/58/58 57/57/57 56/56/56
f  59/59/59 57/57/57 58/58/58
f  60/60/60 59/59/59 58/58/58
f  61/61/61 59/59/59 60/60/60
f  62/62/62 61/61/61 60/60/60
f  63/63/63 61/61/61 62/62/62
f  64/64/64 63/63/63 62/62/62
f  65/65/65 63/63/63 64/64/64
f  66/66/66 65/65/65 64/64/64
f  67/67/67 65/65/65 66/66/66
f  54/54/54 67/67/67 66/66/66
f  53/53/53 67/67/67 54/54/54
f  68/68/68 65/65/65 67/67/67
f  53/53/53 68/68/68 67/67/67
f  55/55/55 68/68/68 53/53/53
f  69/69/69 65/65/65 68/68/68
f  70/70/70 69/69/69 68/68/68
f  71/71/71 69/69/69 70/70/70
f  72/72/72 71/71/71 70/70/70
f  73/73/73 71/71/71 72/72/72
f  74/74/74 73/73/73 72/72/72
f  75/75/75 73/73/73 74/74/74
f  71/71/71 73/73/73 75/75/75
f  76/76/76 75/75/75 74/74/74
f  71/71/71 75/75/75 76/76/76
f  74/74/74 77/77/77 76/76/76
f  74/74/74 69/69/69 77/77/77
f  77/77/77 71/71/71 76/76/76
f  69/69/69 71/71/71 77/77/77
f  72/72/72 78/78/78 74/74/74
f  78/78/78 69/69/69 74/74/74
f  79/79/79 78/78/78 72/72/72
f  80/80/80 79/79/79 72/72/72
f  81/81/81 79/79/79 80/80/80
f  72/72/72 82/82/82 80/80/80
f  82/82/82 81/81/81 80/80/80
f  70/70/70 82/82/82 72/72/72
f  83/83/83 81/81/81 82/82/82
f  79/79/79 81/81/81 83/83/83
f  84/84/84 83/83/83 82/82/82
f  79/79/79 83/83/83 84/84/84
f  78/78/78 79/79/79 84/84/84
f  70/70/70 84/84/84 82/82/82
f  68/68/68 84/84/84 70/70/70
f  54/54/54 85/85/85 52/52/52
f  66/66/66 86/86/86 54/54/54
f  86/86/86 85/85/85 54/54/54
f  87/87/87 86/86/86 66/66/66
f  64/64/64 87/87/87 66/66/66
f  62/62/62 88/88/88 64/64/64
f  88/88/88 87/87/87 64/64/64
f  60/60/60 89/89/89 62/62/62
f  89/89/89 88/88/88 62/62/62
f  90/90/90 89/89/89 60/60/60
f  58/58/58 90/90/90 60/60/60
f  56/56/56 91/91/91 58/58/58
f  91/91/91 90/90/90 58/58/58
f  92/92/92 91/91/91 56/56/56
f  52/52/52 92/92/92 56/56/56
f  85/85/85 92/92/92 52/52/52
f  91/91/91 92/92/92 93/93/93
f  93/93/93 92/92/92 85/85/85
f  90/90/90 91/91/91 94/94/94
f  94/94/94 91/91/91 93/93/93
f  95/95/95 90/90/90 94/94/94
f  96/96/96 89/89/89 90/90/90
f  96/96/96 90/90/90 95/95/95
f  97/97/97 96/96/96 95/95/95
f  98/98/98 96/96/96 97/97/97
f  99/99/99 98/98/98 97/97/97
f  87/87/87 100/100/100 86/86/86
f  86/86/86 100/100/100 99/99/99
f  100/100/100 98/98/98 99/99/99
f  101/101/101 89/89/89 96/96/96
f  98/98/98 101/101/101 96/96/96
f  100/100/100 101/101/101 98/98/98
f  101/101/101 88/88/88 89/89/89
f  87/87/87 88/88/88 101/101/101
f  100/100/100 87/87/87 101/101/101
f  93/93/93 102/102/102 94/94/94
f  102/102/102 97/97/97 95/95/95
f  94/94/94 102/102/102 95/95/95
f  103/103/103 97/97/97 102/102/102
f  93/93/93 103/103/103 102/102/102
f  85/85/85 103/103/103 93/93/93
f  103/103/103 99/99/99 97/97/97
f  86/86/86 99/99/99 103/103/103
f  85/85/85 86/86/86 103/103/103
f  68/68/68 55/55/55 104/104/104
f  104/104/104 84/84/84 68/68/68
f  104/104/104 57/57/57 59/59/59
f  55/55/55 57/57/57 104/104/104
f  105/105/105 78/78/78 84/84/84
f  69/69/69 78/78/78 105/105/105
f  65/65/65 69/69/69 105/105/105
f  105/105/105 84/84/84 104/104/104
f  61/61/61 105/105/105 59/59/59
f  59/59/59 105/105/105 104/104/104
f  63/63/63 105/105/105 61/61/61
f  65/65/65 105/105/105 63/63/63

g
v  -5.921875 -146.343750 -0.406248
v  -3.765625 -146.343750 -3.093748
v  -2.687500 -146.890625 -0.749998
v  -3.718750 -104.203125 -2.203124
v  -3.765625 -146.343750 -3.093748
v  -5.921875 -146.343750 -0.406248
v  -1.859375 -104.203125 -4.499999
v  -1.281250 -106.750000 -1.874999
v  -2.687500 -146.890625 -0.749998
v  -5.921875 -146.343750 -0.406248
v  -3.718750 -104.203125 -2.203124
v  0.203125 -101.421875 -1.031249
v  -1.859375 -104.203125 -4.499999
v  -3.718750 -104.203125 -2.203124
v  2.406250 -104.203125 -5.343749
v  3.687500 -104.203125 -1.812499
v  -1.281250 -106.750000 -1.874999
v  1.984375 -104.203125 3.093751
v  -2.687500 -104.203125 2.046876

vt  0.631200 -0.908200 0.000000
vt  0.576000 -0.966100 0.000000
vt  0.674400 -0.965800 0.000000
vt  0.847500 -0.241100 0.000000
vt  0.946300 -0.980500 0.000000
vt  0.850400 -0.991400 0.000000
vt  0.945800 -0.192500 0.000000
vt  0.847500 -0.241100 0.000000
vt  0.850400 -0.991400 0.000000
vt  0.728500 -0.983600 0.000000
vt  0.752600 -0.195100 0.000000
vt  0.792700 -0.052700 0.000000
vt  0.669900 -0.020900 0.000000
vt  0.894400 -0.010500 0.000000
vt  0.597200 -0.094000 0.000000
vt  0.693500 -0.144800 0.000000
vt  0.792700 -0.052700 0.000000
vt  0.884100 -0.165000 0.000000
vt  0.964100 -0.084700 0.000000

vn  -0.518145 -0.510631 0.686135
vn  0.082596 -0.445738 -0.891345
vn  0.601206 -0.739009 0.304001
vn  -0.953007 0.273663 -0.129948
vn  0.082596 -0.445738 -0.891345
vn  -0.518145 -0.510631 0.686135
vn  -0.169658 0.297277 -0.939597
vn  0.386138 -0.881012 0.273341
vn  0.601206 -0.739009 0.304001
vn  -0.518145 -0.510631 0.686135
vn  -0.953007 0.273663 -0.129948
vn  -0.022592 0.998103 -0.057266
vn  -0.169658 0.297277 -0.939597
vn  -0.953007 0.273663 -0.129948
vn  0.467578 -0.018479 -0.883759
vn  0.993159 -0.116773 0.000000
vn  0.386138 -0.881012 0.273341
vn  0.507138 -0.116773 0.853918
vn  -0.730639 0.006160 0.682736

g rope
usemtl models/objects/hongkong/misc/tuna
f  106/106/106 107/107/107 108/108/108
f  109/109/109 110/110/110 111/111/111
f  112/112/112 110/110/110 109/109/109
f  113/113/113 110/110/110 112/112/112
f  114/114/114 110/110/110 113/113/113
f  115/115/115 114/114/114 113/113/113
f  116/116/116 115/115/115 113/113/113
f  117/117/117 118/118/118 119/119/119
f  120/120/120 118/118/118 117/117/117
f  121/121/121 120/120/120 117/117/117
f  118/118/118 120/120/120 122/122/122
f  122/122/122 120/120/120 121/121/121
f  121/121/121 117/117/117 123/123/123
f  123/123/123 122/122/122 121/121/121
f  119/119/119 124/124/124 117/117/117
f  117/117/117 124/124/124 123/123/123
f  122/122/122 124/124/124 119/119/119
f  124/124/124 122/122/122 123/123/123

g
