# Blender v2.80 (sub 40) OBJ File: 'Banner.blend'
# www.blender.org
mtllib BannerUniversal.mtl
o BANNER01
v 0.000000 0.000000 40.000000
v 1.000000 76.800003 40.000000
v 0.000008 192.000000 40.000000
v 1.000000 62.400002 40.000000
v -0.000004 0.000000 -40.000000
v 0.000004 192.000000 -40.000000
v 0.000006 134.400009 40.000000
v 0.000000 19.200001 40.000000
v 1.000000 48.000000 40.000000
v 1.000000 33.600002 40.000000
v -0.000002 19.200001 -40.000000
v 0.000002 134.400009 -40.000000
v 1.000004 134.400009 40.000000
v 1.000000 19.200001 40.000000
v 1.000000 134.400009 -40.000000
v 0.999996 19.200001 -40.000000
v 1.000000 91.200005 40.000000
v 1.000002 105.600006 40.000000
v 1.000004 120.000008 40.000000
v 0.999996 33.600002 -40.000000
v 0.999996 48.000000 -40.000000
v 0.999996 62.400002 -40.000000
v 0.999996 76.800003 -40.000000
v 0.999996 91.200005 -40.000000
v 0.999998 105.600006 -40.000000
v 1.000000 120.000008 -40.000000
vt 0.500000 0.250000
vt 1.000000 0.250000
vt 1.000000 0.325000
vt 0.500000 0.325000
vt 0.000000 0.700000
vt 0.500000 0.700000
vt 0.500000 1.000000
vt 0.000000 1.000000
vt 0.000000 0.000000
vt 0.500000 0.000000
vt 0.500000 0.100000
vt 0.000000 0.100000
vt 0.500000 0.175000
vt 1.000000 0.175000
vt 0.500000 0.100000
vt 1.000000 0.100000
vt 0.500000 0.625000
vt 1.000000 0.625000
vt 1.000000 0.700000
vt 0.500000 0.700000
vt 1.000000 0.400000
vt 0.500000 0.400000
vt 1.000000 0.475000
vt 0.500000 0.475000
vt 1.000000 0.550000
vt 0.500000 0.550000
vn 1.0000 0.0000 -0.0000
usemtl BANNER01
s off
f 9/1/1 21/2/1 22/3/1 4/4/1
f 7/5/1 12/6/1 6/7/1 3/8/1
f 1/9/1 5/10/1 11/11/1 8/12/1
f 10/13/1 20/14/1 21/2/1 9/1/1
f 14/15/1 16/16/1 20/14/1 10/13/1
f 8/12/1 11/11/1 12/6/1 7/5/1
f 19/17/1 26/18/1 15/19/1 13/20/1
f 4/4/1 22/3/1 23/21/1 2/22/1
f 2/22/1 23/21/1 24/23/1 17/24/1
f 17/24/1 24/23/1 25/25/1 18/26/1
f 18/26/1 25/25/1 26/18/1 19/17/1
