# Blender v2.80 (sub 40) OBJ File: 'Furniture.blend'
# www.blender.org
mtllib box_05.mtl
o box_05_Cube.009
v -16.000000 0.000000 16.000000
v -16.000000 38.400002 16.000000
v -16.000000 0.000000 -16.000000
v -16.000000 38.400002 -16.000000
v 16.000000 0.000000 16.000000
v 16.000000 38.400002 16.000000
v 16.000000 0.000000 -16.000000
v 16.000000 38.400002 -16.000000
vt 0.250000 0.250000
vt -0.000000 0.000000
vt 0.250000 0.000000
vt 0.250000 0.250000
vt -0.000000 0.000000
vt 0.250000 0.000000
vt 0.250000 0.250000
vt -0.000000 0.000000
vt 0.250000 0.000000
vt 0.250000 0.250000
vt -0.000000 0.000000
vt 0.250000 0.000000
vt 0.000000 0.250000
vt 0.250000 0.250000
vt 0.000000 -0.000000
vt 0.250000 -0.000000
vt -0.000000 0.250000
vt -0.000000 0.250000
vt -0.000000 0.250000
vt -0.000000 0.250000
vn -1.0000 0.0000 0.0000
vn 0.0000 0.0000 -1.0000
vn 1.0000 0.0000 0.0000
vn 0.0000 0.0000 1.0000
vn 0.0000 -1.0000 0.0000
vn 0.0000 1.0000 0.0000
usemtl BOX1
s off
f 2/1/1 3/2/1 1/3/1
f 4/4/2 7/5/2 3/6/2
f 8/7/3 5/8/3 7/9/3
f 6/10/4 1/11/4 5/12/4
f 7/13/5 1/3/5 3/14/5
f 4/4/6 6/15/6 8/16/6
f 2/1/1 4/17/1 3/2/1
f 4/4/2 8/18/2 7/5/2
f 8/7/3 6/19/3 5/8/3
f 6/10/4 2/20/4 1/11/4
f 7/13/5 5/8/5 1/3/5
f 4/4/6 2/20/6 6/15/6
