# Blender v2.80 (sub 40) OBJ File: 'Furniture.blend'
# www.blender.org
mtllib box_03.mtl
o box_03_Cube.008
v -32.000000 0.000000 32.000000
v -32.000000 38.400002 32.000000
v -32.000000 0.000000 -32.000000
v -32.000000 38.400002 -32.000000
v 32.000000 0.000000 32.000000
v 32.000000 38.400002 32.000000
v 32.000000 0.000000 -32.000000
v 32.000000 38.400002 -32.000000
vt 0.500000 0.500000
vt -0.000000 0.250000
vt 0.500000 0.250000
vt 0.500000 0.500000
vt -0.000000 0.250000
vt 0.500000 0.250000
vt 0.500000 0.500000
vt -0.000000 0.250000
vt 0.500000 0.250000
vt 0.500000 0.500000
vt -0.000000 0.250000
vt 0.500000 0.250000
vt -0.000000 1.000000
vt 0.500000 0.500000
vt 0.500000 1.000000
vt 0.500000 1.000000
vt -0.000000 0.500000
vt -0.000000 0.500000
vt -0.000000 0.500000
vt -0.000000 0.500000
vt -0.000000 0.500000
vt -0.000000 1.000000
vn -1.0000 0.0000 0.0000
vn 0.0000 0.0000 -1.0000
vn 1.0000 0.0000 0.0000
vn 0.0000 0.0000 1.0000
vn 0.0000 -1.0000 0.0000
vn 0.0000 1.0000 0.0000
usemtl BOX1
s off
f 2/1/1 3/2/1 1/3/1
f 4/4/2 7/5/2 3/6/2
f 8/7/3 5/8/3 7/9/3
f 6/10/4 1/11/4 5/12/4
f 7/13/5 1/14/5 3/15/5
f 4/16/6 6/17/6 8/7/6
f 2/1/1 4/18/1 3/2/1
f 4/4/2 8/19/2 7/5/2
f 8/7/3 6/17/3 5/8/3
f 6/10/4 2/20/4 1/11/4
f 7/13/5 5/21/5 1/14/5
f 4/16/6 2/22/6 6/17/6
