# Blender v2.82 (sub 7) OBJ File: 'cart.blend'
# www.blender.org
mtllib cart03.mtl
o cart_3_-_nodeform_Plane.004
v -4.000000 0.000000 32.000000
v 4.000000 0.000000 32.000000
v 4.000000 48.000000 32.000000
v -4.000000 48.000000 32.000000
v -24.000000 27.600000 32.000000
v -24.000000 20.400002 32.000000
v 24.000000 20.400002 32.000000
v 24.000000 27.600000 32.000000
v -11.000000 2.400000 32.000000
v -17.000000 7.200000 32.000000
v -21.000000 12.000000 32.000000
v -21.000000 36.000000 32.000000
v -17.000000 40.800003 32.000000
v -11.000000 45.600002 32.000000
v 11.000000 45.600002 32.000000
v 17.000000 40.800003 32.000000
v 21.000000 36.000000 32.000000
v 21.000000 12.000000 32.000000
v 17.000000 7.200000 32.000000
v 11.000000 2.400000 32.000000
v -4.000000 0.000000 24.000000
v 4.000000 0.000000 24.000000
v 4.000000 48.000000 24.000000
v -4.000000 48.000000 24.000000
v -24.000000 27.600000 24.000000
v -24.000000 20.400002 24.000000
v 24.000000 20.400002 24.000000
v 24.000000 27.600000 24.000000
v -21.000000 12.000000 24.000000
v -11.000000 45.600002 24.000000
v 21.000000 36.000000 24.000000
v 11.000000 2.400000 24.000000
v -11.000000 2.400000 24.000000
v -17.000000 7.200000 24.000000
v -21.000000 36.000000 24.000000
v -17.000000 40.800003 24.000000
v 11.000000 45.600002 24.000000
v 17.000000 40.800003 24.000000
v 21.000000 12.000000 24.000000
v 17.000000 7.200000 24.000000
v -28.000000 28.800001 24.000000
v -28.000000 28.800001 -24.000000
v -28.000000 38.400002 -24.000000
v -28.000000 38.400002 24.000000
v 28.000000 28.800001 -24.000000
v 28.000000 38.400002 24.000000
v 28.000000 38.400002 -24.000000
v 28.000000 28.800001 16.000000
v 28.000000 38.400002 16.000000
v 76.000000 38.400002 16.000000
v 76.000000 28.800001 16.000000
v 28.000000 38.400002 -16.000000
v 76.000000 38.400002 24.000000
v 76.000000 28.800001 24.000000
v 76.000000 38.400002 -24.000000
v 76.000000 38.400002 -16.000000
v 76.000000 28.800001 -24.000000
v 76.000000 28.800001 -16.000000
v -4.000000 19.200001 -24.000000
v -4.000000 28.800001 -24.000000
v 4.000000 19.200001 -24.000000
v 4.000000 28.800001 -24.000000
v 4.000000 28.800001 24.000000
v 4.000000 19.200001 24.000000
v -4.000000 28.800001 24.000000
v -4.000000 19.200001 24.000000
v 3.999999 0.000000 -32.000000
v -4.000000 0.000000 -32.000000
v -4.000000 48.000000 -32.000000
v 3.999999 48.000000 -32.000000
v 24.000000 27.600000 -32.000004
v 24.000000 20.400002 -32.000004
v -24.000000 20.400002 -31.999996
v -24.000000 27.600000 -31.999996
v 11.000000 2.400000 -32.000000
v 17.000000 7.200000 -32.000004
v 21.000000 12.000000 -32.000004
v 21.000000 36.000000 -32.000004
v 17.000000 40.800003 -32.000004
v 11.000000 45.600002 -32.000000
v -11.000000 45.600002 -32.000000
v -17.000000 40.800003 -31.999996
v -21.000000 36.000000 -31.999996
v -21.000000 12.000000 -31.999996
v -17.000000 7.200000 -31.999996
v -11.000000 2.400000 -32.000000
v 4.000000 0.000000 -24.000000
v -3.999999 0.000000 -24.000000
v -3.999999 48.000000 -24.000000
v 4.000000 48.000000 -24.000000
v 24.000000 27.600000 -24.000004
v 24.000000 20.400002 -24.000004
v -24.000000 20.400002 -23.999996
v -24.000000 27.600000 -23.999996
v 21.000000 12.000000 -24.000004
v 11.000000 45.600002 -24.000000
v -21.000000 36.000000 -23.999996
v -11.000000 2.400000 -24.000000
v 11.000000 2.400000 -24.000000
v 17.000000 7.200000 -24.000004
v 21.000000 36.000000 -24.000004
v 17.000000 40.800003 -24.000004
v -11.000000 45.600002 -24.000000
v -17.000000 40.800003 -23.999996
v -21.000000 12.000000 -23.999996
v -17.000000 7.200000 -23.999996
v 36.000004 -0.000002 15.999998
v 28.000004 -0.000002 16.000000
v 36.000004 -0.000005 23.999998
v 28.000004 -0.000005 23.999998
v 36.000000 0.000005 -24.000002
v 36.000000 0.000002 -16.000002
v 28.000000 0.000005 -24.000002
v 28.000000 0.000002 -16.000002
v 36.000000 28.800001 16.000002
v 36.000000 28.799997 24.000002
v 28.000000 28.799997 24.000002
v 36.000000 28.800005 -23.999998
v 36.000000 28.800003 -15.999998
v 28.000000 28.800001 -15.999998
v -28.000000 57.600002 -24.000000
v -28.000000 57.600002 24.000000
v 28.000000 57.600002 24.000000
v 28.000000 57.600002 -24.000000
v 28.000000 57.600002 16.000000
v -28.000000 57.600002 16.000000
v -28.000000 96.000000 -32.000000
v -28.000000 96.000000 32.000000
v 28.000000 96.000000 32.000000
v 28.000000 96.000000 -32.000000
v -28.000000 38.400002 16.000000
v -28.000000 28.800001 16.000000
v 28.000000 57.600002 -16.000000
v -28.000000 57.600002 -16.000000
v -28.000000 38.400002 -16.000000
v -28.000000 28.800001 -16.000000
v 36.000000 38.400002 -16.000000
v 36.000000 38.400002 -24.000000
v 36.000000 38.400002 24.000000
v 36.000000 38.400002 16.000000
v 36.000000 57.600002 -16.000000
v 36.000000 57.600002 -24.000000
v 36.000000 57.600002 24.000000
v 36.000000 57.600002 16.000000
v 36.000000 28.800001 -15.999998
v 36.000000 38.400002 -16.000000
v 36.000000 38.400002 16.000000
v 36.000000 28.800001 16.000000
v 36.000000 96.000000 -32.000000
v 36.000000 86.400002 -40.000000
v 36.000000 96.000000 32.000000
v 36.000000 86.400002 40.000000
v 36.000000 105.600006 16.000000
v 36.000000 105.600006 -16.000000
v -36.000000 96.000000 -32.000000
v -36.000000 86.400002 -40.000000
v -36.000000 105.600006 16.000000
v -36.000000 105.600006 -16.000000
v -36.000000 86.400002 40.000000
v -36.000000 96.000000 32.000000
v 28.000000 105.600006 16.000000
v -28.000000 105.600006 -16.000000
v -28.000000 105.600006 16.000000
v 28.000000 105.600006 -16.000000
vt 0.722656 0.710938
vt 0.699219 0.695312
vt 0.722656 0.820312
vt 0.613281 0.695312
vt 0.640625 0.687500
vt 0.613281 0.835938
vt 0.425781 0.312500
vt 0.398438 0.343750
vt 0.398438 0.312500
vt 0.476562 0.312500
vt 0.449219 0.343750
vt 0.449219 0.312500
vt 0.132812 0.343750
vt 0.109375 0.312500
vt 0.109375 0.343750
vt 0.382812 0.343750
vt 0.382812 0.312500
vt 0.355469 0.312500
vt 0.328125 0.343750
vt 0.328125 0.312500
vt 0.355469 0.343750
vt 0.226562 0.312500
vt 0.199219 0.343750
vt 0.199219 0.312500
vt 0.296875 0.312500
vt 0.269531 0.343750
vt 0.269531 0.312500
vt 0.082031 0.312500
vt 0.082031 0.343750
vt 0.050781 0.312500
vt 0.050781 0.343750
vt 0.242188 0.343750
vt 0.242188 0.312500
vt 0.023438 0.312500
vt 0.023438 0.343750
vt 0.296875 0.343750
vt 0.226562 0.343750
vt -0.000000 0.312500
vt -0.000000 0.343750
vt 0.425781 0.343750
vt 0.175781 0.312500
vt 0.148438 0.343750
vt 0.148438 0.312500
vt 0.492188 0.312500
vt 0.476562 0.343750
vt 0.175781 0.343750
vt 0.132812 0.343750
vt 0.132812 0.312500
vt 0.312500 0.656250
vt 0.531250 0.687500
vt 0.312500 0.687500
vt 0.218750 0.375000
vt 0.000000 0.406250
vt 0.000000 0.375000
vt 0.218750 0.000000
vt 0.000000 0.062500
vt -0.000000 0.000000
vt 0.218750 0.343750
vt 0.406250 0.375000
vt 0.406250 0.000000
vt 0.281250 0.062500
vt 0.281250 0.000000
vt 0.593750 0.218750
vt 0.875000 0.093750
vt 0.875000 0.218750
vt 0.218750 0.406250
vt 0.406250 0.437500
vt 0.218750 0.437500
vt 0.218750 0.406250
vt 0.187500 0.500000
vt 0.218750 0.531250
vt 0.187500 0.531250
vt 0.218750 0.375000
vt 0.406250 0.343750
vt 0.218750 0.343750
vt 0.218750 0.406250
vt 0.406250 0.437500
vt 0.218750 0.437500
vt 0.218750 0.406250
vt 0.406250 0.375000
vt 0.406250 0.406250
vt 0.218750 0.406250
vt 0.406250 0.406250
vt 0.281250 0.062500
vt 0.218750 0.187500
vt 0.250000 0.062500
vt 0.218750 0.406250
vt 0.406250 0.437500
vt 0.218750 0.437500
vt 0.187500 0.531250
vt 0.218750 0.500000
vt 0.187500 0.500000
vt 0.406250 0.062500
vt 0.281250 0.218750
vt 0.187500 0.687500
vt 0.218750 0.656250
vt 0.187500 0.656250
vt 0.218750 0.343750
vt 0.406250 0.375000
vt 0.218750 0.375000
vt 0.218750 0.437500
vt 0.406250 0.406250
vt 0.218750 0.406250
vt 0.406250 0.406250
vt 0.218750 0.406250
vt 0.722656 0.710938
vt 0.699219 0.695312
vt 0.722656 0.820312
vt 0.613281 0.695312
vt 0.640625 0.687500
vt 0.613281 0.835938
vt 0.425781 0.312500
vt 0.398438 0.343750
vt 0.398438 0.312500
vt 0.476562 0.312500
vt 0.449219 0.343750
vt 0.449219 0.312500
vt 0.132812 0.343750
vt 0.109375 0.312500
vt 0.109375 0.343750
vt 0.382812 0.343750
vt 0.382812 0.312500
vt 0.355469 0.312500
vt 0.328125 0.343750
vt 0.328125 0.312500
vt 0.355469 0.343750
vt 0.226562 0.312500
vt 0.199219 0.343750
vt 0.199219 0.312500
vt 0.296875 0.312500
vt 0.269531 0.343750
vt 0.269531 0.312500
vt 0.082031 0.312500
vt 0.082031 0.343750
vt 0.050781 0.343750
vt 0.050781 0.312500
vt 0.242188 0.312500
vt 0.242188 0.343750
vt 0.023438 0.312500
vt 0.023438 0.343750
vt 0.296875 0.343750
vt 0.226562 0.343750
vt -0.000000 0.312500
vt -0.000000 0.343750
vt 0.425781 0.343750
vt 0.175781 0.312500
vt 0.148438 0.343750
vt 0.148438 0.312500
vt 0.492188 0.312500
vt 0.476562 0.343750
vt 0.175781 0.343750
vt 0.132812 0.343750
vt 0.132812 0.312500
vt 0.312500 0.375000
vt 0.406250 0.343750
vt 0.406250 0.375000
vt 0.312500 0.406250
vt 0.406250 0.437500
vt 0.312500 0.437500
vt 0.312500 0.375000
vt 0.406250 0.343750
vt 0.312500 0.343750
vt 0.312500 0.406250
vt 0.406250 0.437500
vt 0.312500 0.437500
vt 0.406250 0.406250
vt 0.406250 0.375000
vt 0.406250 0.406250
vt 0.312500 0.406250
vt 0.406250 0.406250
vt 0.312500 0.406250
vt 0.406250 0.437500
vt 0.312500 0.437500
vt 0.187500 0.531250
vt 0.218750 0.500000
vt 0.187500 0.500000
vt 0.187500 0.687500
vt 0.218750 0.656250
vt 0.187500 0.656250
vt 0.218750 0.000000
vt 0.000000 0.062500
vt 0.000000 -0.000000
vt 0.468750 -0.000000
vt 0.593750 0.062500
vt 0.593750 -0.000000
vt 0.437500 0.000000
vt 0.218750 0.187500
vt 0.000000 0.312500
vt 0.000000 0.187500
vt 0.218750 0.062500
vt -0.000000 0.187500
vt 0.406250 0.062500
vt 0.468750 0.187500
vt 0.406250 0.218750
vt 0.468750 0.187500
vt 0.406250 0.218750
vt 0.875000 0.312500
vt 0.593750 0.281250
vt 0.875000 0.281250
vt 0.593750 0.031250
vt 0.875000 0.031250
vt 0.593750 0.000000
vt 0.875000 0.000000
vt 0.218750 0.656250
vt 0.187500 0.656250
vt -0.000000 0.375000
vt 0.000000 0.406250
vt 0.218750 0.687500
vt 0.187500 0.687500
vt 0.593750 0.062500
vt 0.468750 0.218750
vt 0.468750 0.062500
vt 0.218750 0.187500
vt 0.250000 0.062500
vt 0.250000 0.000000
vt 0.343750 0.437500
vt 0.406250 0.406250
vt 0.406250 0.437500
vt 0.187500 0.656250
vt 0.218750 0.687500
vt 0.187500 0.687500
vt 0.406250 0.375000
vt 0.343750 0.406250
vt 0.343750 0.375000
vt 0.531250 0.531250
vt 0.531250 0.656250
vt 0.312500 0.531250
vt 0.531250 0.500000
vt 0.406250 0.437500
vt 0.406250 0.406250
vt 0.406250 0.406250
vt 0.343750 0.437500
vt 0.343750 0.406250
vt 0.343750 0.375000
vt 0.406250 0.406250
vt 0.406250 0.375000
vt 0.277344 0.531250
vt 0.312500 0.656250
vt 0.277344 0.656250
vt 0.187500 0.531250
vt 0.218750 0.500000
vt 0.187500 0.500000
vt 0.343750 0.437500
vt 0.406250 0.406250
vt 0.406250 0.437500
vt 0.187500 0.656250
vt 0.218750 0.531250
vt 0.187500 0.531250
vt 0.218750 0.437500
vt 0.562500 0.656250
vt 0.531250 0.531250
vt 0.562500 0.531250
vt 0.671875 0.687500
vt 0.671875 0.843750
vt 0.640625 0.687500
vt 0.613281 0.695312
vt 0.613281 0.835938
vt 0.589844 0.710938
vt 0.574219 0.726562
vt 0.574219 0.804688
vt 0.562500 0.753906
vt 0.562500 0.777344
vt 0.589844 0.820312
vt 0.640625 0.843750
vt 0.699219 0.835938
vt 0.738281 0.804688
vt 0.750000 0.777344
vt 0.738281 0.726562
vt 0.750000 0.753906
vt 0.671875 0.687500
vt 0.671875 0.843750
vt 0.699219 0.695312
vt 0.722656 0.710938
vt 0.722656 0.820312
vt 0.738281 0.726562
vt 0.750000 0.753906
vt 0.750000 0.777344
vt 0.738281 0.804688
vt 0.699219 0.835938
vt 0.640625 0.843750
vt 0.589844 0.820312
vt 0.589844 0.710938
vt 0.574219 0.804688
vt 0.574219 0.726562
vt 0.562500 0.753906
vt 0.562500 0.777344
vt 0.132812 0.312500
vt 0.492188 0.343750
vt 0.406250 0.343750
vt 0.593750 0.093750
vt 0.406250 0.406250
vt 0.218750 0.437500
vt 0.218750 0.500000
vt 0.406250 0.406250
vt 0.281250 0.218750
vt 0.406250 0.406250
vt 0.218750 0.531250
vt 0.218750 0.687500
vt 0.406250 0.343750
vt 0.406250 0.437500
vt 0.671875 0.687500
vt 0.671875 0.843750
vt 0.640625 0.687500
vt 0.613281 0.695312
vt 0.613281 0.835938
vt 0.589844 0.710938
vt 0.574219 0.726562
vt 0.574219 0.804688
vt 0.562500 0.753906
vt 0.562500 0.777344
vt 0.589844 0.820312
vt 0.640625 0.843750
vt 0.699219 0.835938
vt 0.738281 0.804688
vt 0.750000 0.777344
vt 0.738281 0.726562
vt 0.750000 0.753906
vt 0.671875 0.687500
vt 0.671875 0.843750
vt 0.699219 0.695312
vt 0.722656 0.710938
vt 0.722656 0.820312
vt 0.738281 0.726562
vt 0.750000 0.753906
vt 0.750000 0.777344
vt 0.738281 0.804688
vt 0.699219 0.835938
vt 0.640625 0.843750
vt 0.589844 0.820312
vt 0.589844 0.710938
vt 0.574219 0.804688
vt 0.574219 0.726562
vt 0.562500 0.753906
vt 0.562500 0.777344
vt 0.132812 0.312500
vt 0.492188 0.343750
vt 0.312500 0.343750
vt 0.406250 0.406250
vt 0.312500 0.406250
vt 0.406250 0.406250
vt 0.218750 0.531250
vt 0.218750 0.687500
vt 0.218750 0.062500
vt 0.468750 0.062500
vt 0.437500 0.062500
vt 0.218750 0.312500
vt 0.437500 0.062500
vt 0.593750 0.312500
vt 0.593750 0.218750
vt 0.343750 0.406250
vt 0.218750 0.656250
vt 0.312500 0.500000
vt 0.343750 0.437500
vt 0.406250 0.437500
vt 0.343750 0.406250
vt 0.312500 0.531250
vt 0.218750 0.531250
vt 0.343750 0.406250
vt 0.218750 0.656250
vt 0.218750 0.406250
vt 0.531250 0.656250
vn 0.0000 0.0000 -1.0000
vn 0.0000 0.0000 1.0000
vn 0.9417 -0.3363 0.0000
vn 0.9417 0.3363 0.0000
vn -0.6247 0.7809 0.0000
vn 0.7682 -0.6402 0.0000
vn 0.3243 -0.9459 0.0000
vn 0.6247 -0.7809 0.0000
vn -0.9417 -0.3363 0.0000
vn -0.3243 -0.9459 0.0000
vn -0.3243 0.9459 0.0000
vn 0.0000 1.0000 0.0000
vn -0.6247 -0.7809 0.0000
vn 0.3243 0.9459 0.0000
vn 0.0000 -1.0000 0.0000
vn -0.7682 -0.6402 0.0000
vn 0.6247 0.7809 0.0000
vn 1.0000 0.0000 0.0000
vn -0.9417 0.3363 0.0000
vn 0.7682 0.6402 0.0000
vn -1.0000 0.0000 0.0000
vn -0.7682 0.6402 0.0000
vn 0.0000 -0.2040 -0.9790
vn 0.0000 -0.2040 0.9790
vn 0.0000 0.6402 -0.7682
vn 0.0000 0.8575 0.5145
vn 0.0000 0.6402 0.7682
vn 0.0000 0.8575 -0.5145
usemtl CARTT01
s off
f 19/1/1 20/2/1 16/3/1
f 33/4/2 21/5/2 30/6/2
f 5/7/3 35/8/3 12/9/3
f 11/10/4 26/11/4 6/12/4
f 19/13/5 32/14/5 20/15/5
f 12/9/6 36/16/6 13/17/6
f 14/18/7 24/19/7 4/20/7
f 13/17/8 30/21/8 14/18/8
f 17/22/9 28/23/9 8/24/9
f 3/25/10 37/26/10 15/27/10
f 20/15/11 22/28/11 2/29/11
f 2/29/12 21/30/12 1/31/12
f 15/27/13 38/32/13 16/33/13
f 1/31/14 33/34/14 9/35/14
f 4/20/15 23/36/15 3/25/15
f 16/33/16 31/37/16 17/22/16
f 9/35/17 34/38/17 10/39/17
f 6/12/18 25/40/18 5/7/18
f 7/41/19 39/42/19 18/43/19
f 10/44/20 29/45/20 11/10/20
f 8/24/21 27/46/21 7/41/21
f 18/43/22 40/47/22 19/48/22
f 132/49/15 117/50/15 41/51/15
f 117/52/2 44/53/2 41/54/2
f 46/55/2 122/56/2 44/57/2
f 48/58/15 54/59/15 117/52/15
f 131/60/21 134/61/21 135/62/21
f 158/63/12 153/64/12 154/65/12
f 120/66/2 56/67/2 52/68/2
f 52/68/1 145/69/1 120/66/1
f 41/70/21 131/71/21 132/72/21
f 45/73/15 58/74/15 120/75/15
f 46/76/12 50/77/12 49/78/12
f 47/79/1 57/80/1 45/73/1
f 49/78/1 51/81/1 48/82/1
f 117/52/2 53/83/2 46/76/2
f 125/84/18 129/85/18 123/86/18
f 52/87/12 55/88/12 47/89/12
f 51/90/18 53/91/18 54/92/18
f 126/93/21 162/94/21 134/61/21
f 57/95/18 56/96/18 58/97/18
f 61/98/15 66/99/15 59/100/15
f 62/101/18 64/102/18 61/103/18
f 59/100/21 65/104/21 60/105/21
f 85/106/2 86/107/2 82/108/2
f 99/109/1 87/110/1 96/111/1
f 71/112/9 101/113/9 78/114/9
f 77/115/19 92/116/19 72/117/19
f 85/118/17 98/119/17 86/120/17
f 78/114/16 102/121/16 79/122/16
f 80/123/10 90/124/10 70/125/10
f 80/123/13 102/121/13 96/126/13
f 83/127/3 94/128/3 74/129/3
f 69/130/7 103/131/7 81/132/7
f 86/120/14 88/133/14 68/134/14
f 67/135/12 88/133/12 87/136/12
f 82/137/8 103/131/8 104/138/8
f 67/135/11 99/139/11 75/140/11
f 70/125/15 89/141/15 69/130/15
f 82/137/6 97/142/6 83/127/6
f 75/140/5 100/143/5 76/144/5
f 72/117/21 91/145/21 71/112/21
f 73/146/4 105/147/4 84/148/4
f 76/149/22 95/150/22 77/115/22
f 74/129/18 93/151/18 73/146/18
f 84/148/20 106/152/20 85/153/20
f 117/154/21 108/155/21 110/156/21
f 120/157/2 112/158/2 119/159/2
f 45/160/21 114/161/21 120/162/21
f 116/163/18 107/164/18 115/165/18
f 45/160/1 111/166/1 113/167/1
f 115/165/1 108/168/1 48/169/1
f 116/163/2 110/156/2 109/170/2
f 119/171/18 111/172/18 118/173/18
f 108/174/15 109/175/15 110/176/15
f 113/177/15 112/178/15 114/179/15
f 43/180/1 124/181/1 47/182/1
f 52/183/18 125/184/18 49/185/18
f 44/186/21 126/93/21 131/60/21
f 121/187/23 130/188/23 124/189/23
f 123/190/24 128/191/24 122/56/24
f 133/192/18 130/193/18 164/194/18
f 126/93/21 128/195/21 163/196/21
f 150/197/25 155/198/25 149/199/25
f 153/64/26 160/200/26 151/201/26
f 151/201/27 159/202/27 152/203/27
f 132/72/21 135/204/21 136/205/21
f 47/79/1 42/206/1 43/207/1
f 136/205/21 43/208/21 42/209/21
f 133/210/18 161/211/18 125/212/18
f 134/61/21 127/213/21 121/214/21
f 155/198/28 154/65/28 149/199/28
f 135/62/21 121/214/21 43/215/21
f 137/216/18 142/217/18 141/218/18
f 133/219/12 142/220/12 124/221/12
f 125/222/1 140/223/1 49/224/1
f 132/49/15 120/225/15 48/226/15
f 136/227/15 45/228/15 120/225/15
f 143/229/18 140/223/18 144/230/18
f 124/231/1 138/232/1 47/233/1
f 52/234/2 141/235/2 133/236/2
f 49/237/12 146/238/12 52/239/12
f 123/240/12 144/241/12 125/242/12
f 46/243/2 143/244/2 123/245/2
f 145/246/18 147/247/18 148/248/18
f 48/82/2 147/249/2 49/78/2
f 120/250/15 148/251/15 48/252/15
f 20/2/1 2/253/1 3/254/1
f 2/253/1 1/255/1 3/254/1
f 1/255/1 9/256/1 14/257/1
f 9/256/1 10/258/1 14/257/1
f 10/258/1 11/259/1 12/260/1
f 11/259/1 6/261/1 12/260/1
f 6/261/1 5/262/1 12/260/1
f 12/260/1 13/263/1 10/258/1
f 13/263/1 14/257/1 10/258/1
f 14/257/1 4/264/1 1/255/1
f 4/264/1 3/254/1 1/255/1
f 3/254/1 15/265/1 20/2/1
f 15/265/1 16/3/1 20/2/1
f 16/3/1 17/266/1 19/1/1
f 17/266/1 8/267/1 18/268/1
f 19/1/1 17/266/1 18/268/1
f 8/267/1 7/269/1 18/268/1
f 21/5/2 22/270/2 23/271/2
f 22/270/2 32/272/2 23/271/2
f 32/272/2 40/273/2 38/274/2
f 40/273/2 39/275/2 38/274/2
f 39/275/2 27/276/2 28/277/2
f 28/277/2 31/278/2 39/275/2
f 31/278/2 38/274/2 39/275/2
f 38/274/2 37/279/2 32/272/2
f 37/279/2 23/271/2 32/272/2
f 23/271/2 24/280/2 21/5/2
f 24/280/2 30/6/2 21/5/2
f 30/6/2 36/281/2 34/282/2
f 36/281/2 35/283/2 29/284/2
f 29/284/2 35/283/2 26/285/2
f 35/283/2 25/286/2 26/285/2
f 29/284/2 34/282/2 36/281/2
f 34/282/2 33/4/2 30/6/2
f 5/7/3 25/40/3 35/8/3
f 11/10/4 29/45/4 26/11/4
f 19/13/5 40/287/5 32/14/5
f 12/9/6 35/8/6 36/16/6
f 14/18/7 30/21/7 24/19/7
f 13/17/8 36/16/8 30/21/8
f 17/22/9 31/37/9 28/23/9
f 3/25/10 23/36/10 37/26/10
f 20/15/11 32/14/11 22/28/11
f 2/29/12 22/28/12 21/30/12
f 15/27/13 37/26/13 38/32/13
f 1/31/14 21/30/14 33/34/14
f 4/20/15 24/19/15 23/36/15
f 16/33/16 38/32/16 31/37/16
f 9/35/17 33/34/17 34/38/17
f 6/12/18 26/11/18 25/40/18
f 7/41/19 27/46/19 39/42/19
f 10/44/20 34/288/20 29/45/20
f 8/24/21 28/23/21 27/46/21
f 18/43/22 39/42/22 40/47/22
f 132/49/15 48/226/15 117/50/15
f 117/52/2 46/76/2 44/53/2
f 46/55/2 123/190/2 122/56/2
f 48/58/15 51/289/15 54/59/15
f 131/60/21 126/93/21 134/61/21
f 158/63/12 157/290/12 153/64/12
f 120/66/2 58/291/2 56/67/2
f 52/68/1 146/292/1 145/69/1
f 41/70/21 44/293/21 131/71/21
f 45/73/15 57/80/15 58/74/15
f 46/76/12 53/83/12 50/77/12
f 47/79/1 55/294/1 57/80/1
f 49/78/1 50/77/1 51/81/1
f 117/52/2 54/59/2 53/83/2
f 125/84/18 161/295/18 129/85/18
f 52/87/12 56/296/12 55/88/12
f 51/90/18 50/297/18 53/91/18
f 126/93/21 163/196/21 162/94/21
f 57/95/18 55/298/18 56/96/18
f 61/98/15 64/299/15 66/99/15
f 62/101/18 63/300/18 64/102/18
f 59/100/21 66/99/21 65/104/21
f 86/107/2 68/301/2 69/302/2
f 68/301/2 67/303/2 69/302/2
f 67/303/2 75/304/2 80/305/2
f 75/304/2 76/306/2 80/305/2
f 76/306/2 77/307/2 78/308/2
f 77/307/2 72/309/2 78/308/2
f 72/309/2 71/310/2 78/308/2
f 78/308/2 79/311/2 76/306/2
f 79/311/2 80/305/2 76/306/2
f 80/305/2 70/312/2 67/303/2
f 70/312/2 69/302/2 67/303/2
f 69/302/2 81/313/2 86/107/2
f 81/313/2 82/108/2 86/107/2
f 82/108/2 83/314/2 85/106/2
f 83/314/2 74/315/2 84/316/2
f 85/106/2 83/314/2 84/316/2
f 74/315/2 73/317/2 84/316/2
f 87/110/1 88/318/1 89/319/1
f 88/318/1 98/320/1 89/319/1
f 98/320/1 106/321/1 104/322/1
f 106/321/1 105/323/1 104/322/1
f 105/323/1 93/324/1 94/325/1
f 94/325/1 97/326/1 105/323/1
f 97/326/1 104/322/1 105/323/1
f 104/322/1 103/327/1 98/320/1
f 103/327/1 89/319/1 98/320/1
f 89/319/1 90/328/1 87/110/1
f 90/328/1 96/111/1 87/110/1
f 96/111/1 102/329/1 100/330/1
f 102/329/1 101/331/1 95/332/1
f 95/332/1 101/331/1 92/333/1
f 101/331/1 91/334/1 92/333/1
f 95/332/1 100/330/1 102/329/1
f 100/330/1 99/109/1 96/111/1
f 71/112/9 91/145/9 101/113/9
f 77/115/19 95/150/19 92/116/19
f 85/118/17 106/335/17 98/119/17
f 78/114/16 101/113/16 102/121/16
f 80/123/10 96/126/10 90/124/10
f 80/123/13 79/122/13 102/121/13
f 83/127/3 97/142/3 94/128/3
f 69/130/7 89/141/7 103/131/7
f 86/120/14 98/119/14 88/133/14
f 67/135/12 68/134/12 88/133/12
f 82/137/8 81/132/8 103/131/8
f 67/135/11 87/136/11 99/139/11
f 70/125/15 90/124/15 89/141/15
f 82/137/6 104/138/6 97/142/6
f 75/140/5 99/139/5 100/143/5
f 72/117/21 92/116/21 91/145/21
f 73/146/4 93/151/4 105/147/4
f 76/149/22 100/336/22 95/150/22
f 74/129/18 94/128/18 93/151/18
f 84/148/20 105/147/20 106/152/20
f 117/154/21 48/337/21 108/155/21
f 120/157/2 114/338/2 112/158/2
f 45/160/21 113/167/21 114/161/21
f 116/163/18 109/170/18 107/164/18
f 45/160/1 118/339/1 111/166/1
f 115/165/1 107/164/1 108/168/1
f 116/163/2 117/154/2 110/156/2
f 119/171/18 112/340/18 111/172/18
f 108/174/15 107/341/15 109/175/15
f 113/177/15 111/342/15 112/178/15
f 43/180/1 121/343/1 124/181/1
f 52/183/18 133/344/18 125/184/18
f 44/186/21 122/345/21 126/93/21
f 121/187/23 127/346/23 130/188/23
f 123/190/24 129/85/24 128/191/24
f 133/192/18 124/347/18 130/193/18
f 126/93/21 122/345/21 128/195/21
f 150/197/25 156/348/25 155/198/25
f 153/64/26 157/290/26 160/200/26
f 151/201/27 160/200/27 159/202/27
f 132/72/21 131/71/21 135/204/21
f 47/79/1 45/73/1 42/206/1
f 136/205/21 135/204/21 43/208/21
f 133/210/18 164/349/18 161/211/18
f 134/61/21 162/94/21 127/213/21
f 155/198/28 158/63/28 154/65/28
f 135/62/21 134/61/21 121/214/21
f 137/216/18 138/350/18 142/217/18
f 133/219/12 141/351/12 142/220/12
f 125/222/1 144/230/1 140/223/1
f 132/49/15 136/227/15 120/225/15
f 136/227/15 42/352/15 45/228/15
f 143/229/18 139/353/18 140/223/18
f 124/231/1 142/354/1 138/232/1
f 52/234/2 137/355/2 141/235/2
f 49/237/12 147/356/12 146/238/12
f 123/240/12 143/357/12 144/241/12
f 46/243/2 139/358/2 143/244/2
f 145/246/18 146/359/18 147/247/18
f 48/82/2 148/360/2 147/249/2
f 120/250/15 145/361/15 148/251/15
l 60 62
l 65 63
