# Blender v2.80 (sub 40) OBJ File: 'haystuff.blend'
# www.blender.org
mtllib hayroll.mtl
o wheel_-_deform_Plane.006
v -4.000000 0.000000 18.000000
v 4.000000 0.000000 18.000000
v 4.000000 48.000000 18.000000
v -4.000000 48.000000 18.000000
v -24.000000 27.600000 18.000000
v -24.000000 20.400002 18.000000
v 24.000000 20.400002 18.000000
v 24.000000 27.600000 18.000000
v -11.000000 2.400000 18.000000
v -17.000000 7.200000 18.000000
v -21.000000 12.000000 18.000000
v -21.000000 36.000000 18.000000
v -17.000000 40.800003 18.000000
v -11.000000 45.600002 18.000000
v 11.000000 45.600002 18.000000
v 17.000000 40.800003 18.000000
v 21.000000 36.000000 18.000000
v 21.000000 12.000000 18.000000
v 17.000000 7.200000 18.000000
v 11.000000 2.400000 18.000000
v -4.000000 0.000000 -18.000000
v 4.000000 0.000000 -18.000000
v 4.000000 48.000000 -18.000000
v -4.000000 48.000000 -18.000000
v -24.000000 27.600000 -18.000000
v -24.000000 20.400002 -18.000000
v 24.000000 20.400002 -18.000000
v 24.000000 27.600000 -18.000000
v -21.000000 12.000000 -18.000000
v -11.000000 45.600002 -18.000000
v 21.000000 36.000000 -18.000000
v 11.000000 2.400000 -18.000000
v -11.000000 2.400000 -18.000000
v -17.000000 7.200000 -18.000000
v -21.000000 36.000000 -18.000000
v -17.000000 40.800003 -18.000000
v 11.000000 45.600002 -18.000000
v 17.000000 40.800003 -18.000000
v 21.000000 12.000000 -18.000000
v 17.000000 7.200000 -18.000000
v -4.000000 0.000000 -14.000000
v 4.000000 0.000000 -14.000000
v 4.000000 48.000000 -14.000000
v -4.000000 48.000000 -14.000000
v -24.000000 27.600000 -14.000000
v -24.000000 20.400002 -14.000000
v 24.000000 20.400002 -14.000000
v 24.000000 27.600000 -14.000000
v -21.000000 12.000000 -14.000000
v -11.000000 45.600002 -14.000000
v 21.000000 36.000000 -14.000000
v 11.000000 2.400000 -14.000000
v -11.000000 2.400000 -14.000000
v -17.000000 7.200000 -14.000000
v -21.000000 36.000000 -14.000000
v -17.000000 40.800003 -14.000000
v 11.000000 45.600002 -14.000000
v 17.000000 40.800003 -14.000000
v 21.000000 12.000000 -14.000000
v 17.000000 7.200000 -14.000000
v -4.000000 0.000000 14.000000
v 4.000000 0.000000 14.000000
v 4.000000 48.000000 14.000000
v -4.000000 48.000000 14.000000
v -24.000000 27.600000 14.000000
v -24.000000 20.400002 14.000000
v 24.000000 20.400002 14.000000
v 24.000000 27.600000 14.000000
v -11.000000 2.400000 14.000000
v -17.000000 7.200000 14.000000
v -21.000000 12.000000 14.000000
v -21.000000 36.000000 14.000000
v -17.000000 40.800003 14.000000
v -11.000000 45.600002 14.000000
v 11.000000 45.600002 14.000000
v 17.000000 40.800003 14.000000
v 21.000000 36.000000 14.000000
v 21.000000 12.000000 14.000000
v 17.000000 7.200000 14.000000
v 11.000000 2.400000 14.000000
vt 0.851562 0.000000
vt 0.804688 0.281250
vt 0.804688 0.000000
vt 0.953125 0.000000
vt 0.898438 0.281250
vt 0.898438 0.000000
vt 0.273438 0.281250
vt 0.226562 0.000000
vt 0.226562 0.281250
vt 0.773438 0.281250
vt 0.773438 0.000000
vt 0.710938 0.000000
vt 0.664062 0.281250
vt 0.664062 0.000000
vt 0.710938 0.281250
vt 0.460938 0.000000
vt 0.398438 0.281250
vt 0.398438 0.000000
vt 0.601562 0.000000
vt 0.539062 0.281250
vt 0.539062 0.000000
vt 0.164062 0.000000
vt 0.164062 0.281250
vt 0.101562 0.000000
vt 0.101562 0.281250
vt 0.492188 0.281250
vt 0.492188 0.000000
vt 0.054688 0.000000
vt 0.054688 0.281250
vt 0.601562 0.281250
vt 0.460938 0.281250
vt 0.000000 0.000000
vt 0.000000 0.281250
vt 0.851562 0.281250
vt 0.351562 0.000000
vt 0.304688 0.281250
vt 0.304688 0.000000
vt 0.984375 -0.000000
vt 0.953125 0.281250
vt 0.351562 0.281250
vt 0.273438 0.281250
vt 0.273438 0.000000
vt 0.320312 0.546875
vt -0.000000 0.414062
vt 0.156250 0.281250
vt 0.023438 0.515625
vt 0.375000 0.460938
vt 0.273438 0.296875
vt 0.273438 0.000000
vt 0.984375 0.281250
vt 0.218750 0.281250
vt 0.273438 0.296875
vt 0.320312 0.328125
vt 0.351562 0.359375
vt 0.375000 0.414062
vt 0.375000 0.460938
vt 0.351562 0.515625
vt 0.273438 0.578125
vt 0.218750 0.593750
vt 0.156250 0.593750
vt 0.101562 0.578125
vt 0.054688 0.546875
vt 0.023438 0.515625
vt -0.000000 0.460938
vt 0.023438 0.359375
vt 0.054688 0.328125
vt 0.101562 0.296875
vt 0.218750 0.281250
vt 0.156250 0.281250
vt 0.101562 0.296875
vt 0.054688 0.328125
vt 0.023438 0.359375
vt -0.000000 0.414062
vt -0.000000 0.460938
vt 0.054688 0.546875
vt 0.101562 0.578125
vt 0.156250 0.593750
vt 0.218750 0.593750
vt 0.273438 0.578125
vt 0.320312 0.546875
vt 0.351562 0.515625
vt 0.375000 0.414062
vt 0.351562 0.359375
vt 0.320312 0.328125
vn 0.9417 -0.3363 0.0000
vn 0.9417 0.3363 0.0000
vn -0.6247 0.7809 0.0000
vn 0.7682 -0.6402 0.0000
vn 0.3243 -0.9459 0.0000
vn 0.6247 -0.7809 0.0000
vn -0.9417 -0.3363 0.0000
vn -0.3243 -0.9459 0.0000
vn -0.3243 0.9459 0.0000
vn 0.0000 1.0000 0.0000
vn -0.6247 -0.7809 0.0000
vn 0.3243 0.9459 0.0000
vn 0.0000 -1.0000 0.0000
vn -0.7682 -0.6402 0.0000
vn 0.6247 0.7809 0.0000
vn 1.0000 0.0000 0.0000
vn -0.9417 0.3363 0.0000
vn 0.7682 0.6402 0.0000
vn -1.0000 0.0000 0.0000
vn -0.7682 0.6402 0.0000
vn 0.0000 0.0000 1.0000
vn 0.0000 0.0000 -1.0000
usemtl CARTT01.001
s off
f 5/1/1 35/2/1 12/3/1
f 11/4/2 26/5/2 6/6/2
f 19/7/3 32/8/3 20/9/3
f 12/3/4 36/10/4 13/11/4
f 14/12/5 24/13/5 4/14/5
f 13/11/6 30/15/6 14/12/6
f 17/16/7 28/17/7 8/18/7
f 3/19/8 37/20/8 15/21/8
f 20/9/9 22/22/9 2/23/9
f 2/23/10 21/24/10 1/25/10
f 15/21/11 38/26/11 16/27/11
f 1/25/12 33/28/12 9/29/12
f 4/14/13 23/30/13 3/19/13
f 16/27/14 31/31/14 17/16/14
f 9/29/15 34/32/15 10/33/15
f 6/6/16 25/34/16 5/1/16
f 7/35/17 39/36/17 18/37/17
f 10/38/18 29/39/18 11/4/18
f 8/18/19 27/40/19 7/35/19
f 18/37/20 40/41/20 19/42/20
f 58/43/21 46/44/21 41/45/21
f 72/46/22 68/47/22 80/48/22
f 5/1/1 25/34/1 35/2/1
f 11/4/2 29/39/2 26/5/2
f 19/7/3 40/49/3 32/8/3
f 12/3/4 35/2/4 36/10/4
f 14/12/5 30/15/5 24/13/5
f 13/11/6 36/10/6 30/15/6
f 17/16/7 31/31/7 28/17/7
f 3/19/8 23/30/8 37/20/8
f 20/9/9 32/8/9 22/22/9
f 2/23/10 22/22/10 21/24/10
f 15/21/11 37/20/11 38/26/11
f 1/25/12 21/24/12 33/28/12
f 4/14/13 24/13/13 23/30/13
f 16/27/14 38/26/14 31/31/14
f 9/29/15 33/28/15 34/32/15
f 6/6/16 26/5/16 25/34/16
f 7/35/17 27/40/17 39/36/17
f 10/38/18 34/50/18 29/39/18
f 8/18/19 28/17/19 27/40/19
f 18/37/20 39/36/20 40/41/20
f 41/45/21 42/51/21 52/52/21
f 52/52/21 60/53/21 59/54/21
f 59/54/21 47/55/21 48/56/21
f 48/56/21 51/57/21 58/43/21
f 58/43/21 57/58/21 43/59/21
f 43/59/21 44/60/21 50/61/21
f 50/61/21 56/62/21 55/63/21
f 55/63/21 45/64/21 46/44/21
f 46/44/21 49/65/21 54/66/21
f 54/66/21 53/67/21 41/45/21
f 41/45/21 52/52/21 59/54/21
f 59/54/21 48/56/21 58/43/21
f 58/43/21 43/59/21 50/61/21
f 50/61/21 55/63/21 46/44/21
f 46/44/21 54/66/21 41/45/21
f 41/45/21 59/54/21 58/43/21
f 58/43/21 50/61/21 46/44/21
f 80/48/22 62/68/22 61/69/22
f 61/69/22 69/70/22 70/71/22
f 70/71/22 71/72/22 66/73/22
f 66/73/22 65/74/22 72/46/22
f 72/46/22 73/75/22 74/76/22
f 74/76/22 64/77/22 63/78/22
f 63/78/22 75/79/22 76/80/22
f 76/80/22 77/81/22 68/47/22
f 68/47/22 67/82/22 78/83/22
f 78/83/22 79/84/22 80/48/22
f 80/48/22 61/69/22 70/71/22
f 70/71/22 66/73/22 72/46/22
f 72/46/22 74/76/22 63/78/22
f 63/78/22 76/80/22 68/47/22
f 68/47/22 78/83/22 80/48/22
f 80/48/22 70/71/22 72/46/22
f 72/46/22 63/78/22 68/47/22
