# Blender v2.80 (sub 75) OBJ File: 'Furniture.blend'
# www.blender.org
mtllib Table_03.mtl
o table_3_Cube.012
v -32.000000 33.600002 32.000000
v -32.000000 43.200001 32.000000
v -32.000000 33.600002 -32.000000
v -32.000000 43.200001 -32.000000
v 32.000000 33.600002 32.000000
v 32.000000 43.200001 32.000000
v 32.000000 33.600002 -32.000000
v 32.000000 43.200001 -32.000000
v 32.000000 0.000000 32.000000
v 32.000000 33.600002 32.000000
v -32.000000 33.600002 32.000000
v -32.000000 0.000000 32.000000
v 32.000000 0.000000 -32.000000
v 32.000000 33.600002 -32.000000
v -32.000000 33.600002 -32.000000
v -32.000000 0.000000 -32.000000
v 32.000004 0.000000 -32.000000
v 32.000004 33.600002 -32.000000
v 32.000000 33.600002 32.000004
v 32.000000 0.000000 32.000004
v -32.000000 0.000000 -32.000004
v -32.000000 33.600002 -32.000004
v -32.000004 33.600002 32.000000
v -32.000004 0.000000 32.000000
vt 0.000000 0.437500
vt -0.000000 0.500000
vt 0.500000 0.500000
vt 0.500000 0.437500
vt 0.000000 0.500000
vt -0.000000 0.437500
vt 0.500000 0.437500
vt 0.500000 0.500000
vt -0.000000 0.500000
vt -0.000000 0.437500
vt 0.500000 0.500000
vt 0.500000 0.437500
vt 0.500000 0.500000
vt 1.000000 0.500000
vt 1.000000 1.000000
vt 0.500000 1.000000
vt 0.500000 1.000000
vt 0.000000 1.000000
vt 0.000000 0.437500
vt 0.500000 0.437500
vt 0.500000 0.250000
vt 0.000000 0.250000
vt 0.000000 0.437500
vt 0.500000 0.437500
vt 0.500000 0.250000
vt 0.000000 0.250000
vt 0.000000 0.437500
vt 0.500000 0.437500
vt 0.500000 0.250000
vt 0.000000 0.250000
vt 0.000000 0.437500
vt 0.500000 0.437500
vt 0.500000 0.250000
vt 0.000000 0.250000
vn -1.0000 0.0000 0.0000
vn 0.0000 0.0000 -1.0000
vn 1.0000 0.0000 0.0000
vn 0.0000 0.0000 1.0000
vn 0.0000 -1.0000 0.0000
vn 0.0000 1.0000 0.0000
usemtl FURNI03
s off
f 1/1/1 2/2/1 4/3/1 3/4/1
f 3/4/2 4/3/2 8/5/2 7/6/2
f 7/7/3 8/8/3 6/9/3 5/10/3
f 5/10/4 6/9/4 2/11/4 1/12/4
f 3/13/5 7/14/5 5/15/5 1/16/5
f 8/5/6 4/3/6 2/17/6 6/18/6
f 11/19/2 10/20/2 9/21/2 12/22/2
f 15/23/2 14/24/2 13/25/2 16/26/2
f 19/27/1 18/28/1 17/29/1 20/30/1
f 23/31/1 22/32/1 21/33/1 24/34/1
