# Blender v2.80 (sub 40) OBJ File: 'Furniture.blend'
# www.blender.org
mtllib Table_01.mtl
o table_bigger_Cube.004
v -32.000000 33.600002 32.000000
v -32.000000 38.400002 32.000000
v -32.000000 33.600002 -32.000000
v -32.000000 38.400002 -32.000000
v 32.000000 33.600002 32.000000
v 32.000000 38.400002 32.000000
v 32.000000 33.600002 -32.000000
v 32.000000 38.400002 -32.000000
v -28.000000 26.399998 28.000000
v -28.000000 33.599998 28.000000
v -28.000000 26.399998 -28.000000
v -28.000000 33.599998 -28.000000
v 28.000000 26.399998 28.000000
v 28.000000 33.599998 28.000000
v 28.000000 26.399998 -28.000000
v 28.000000 33.599998 -28.000000
v -28.000000 26.399998 -20.000000
v -28.000000 26.399998 20.000000
v -28.000000 33.599998 20.000000
v -28.000000 33.599998 -20.000000
v 28.000000 26.399998 20.000000
v 28.000000 26.399998 -20.000000
v 28.000000 33.599998 -20.000000
v 28.000000 33.599998 20.000000
v 20.000000 26.400002 -28.000000
v -20.000000 26.400002 -28.000000
v -20.000000 33.600002 -28.000000
v 20.000000 33.600002 -28.000000
v -20.000000 26.400002 28.000000
v 20.000000 26.400002 28.000000
v 20.000000 33.600002 28.000000
v -20.000000 33.600002 28.000000
v -20.000000 33.600002 -20.000000
v 20.000000 33.600002 -20.000000
v -20.000000 33.600002 20.000000
v 20.000000 33.600002 20.000000
v 20.000000 26.400002 -20.000000
v -20.000000 26.400002 -20.000000
v 20.000000 26.400002 20.000000
v -20.000000 26.400002 20.000000
v -28.000000 -0.000004 20.000000
v -28.000000 -0.000004 28.000000
v -20.000000 0.000000 -28.000000
v -28.000000 -0.000004 -28.000000
v 28.000000 -0.000004 -20.000000
v 28.000000 -0.000004 -28.000000
v 20.000000 0.000000 28.000000
v 28.000000 -0.000004 28.000000
v -28.000000 -0.000004 -20.000000
v 28.000000 -0.000004 20.000000
v -20.000000 0.000000 -20.000000
v -20.000000 0.000000 20.000000
v 20.000000 0.000000 -28.000000
v -20.000000 0.000000 28.000000
v 20.000000 0.000000 -20.000000
v 20.000000 0.000000 20.000000
vt 1.000000 0.500000
vt 0.500000 0.468750
vt 1.000000 0.468750
vt 1.000000 0.468750
vt 0.500000 0.437500
vt 1.000000 0.437500
vt 0.500000 0.500000
vt 1.000000 0.468750
vt 0.500000 0.468750
vt 1.000000 0.468750
vt 0.500000 0.437500
vt 1.000000 0.437500
vt 0.500000 0.500000
vt 1.000000 1.000000
vt 0.500000 1.000000
vt -0.000000 0.500000
vt 0.500000 1.000000
vt -0.000000 1.000000
vt 0.625000 0.437500
vt 0.562500 0.390625
vt 0.625000 0.390625
vt 0.625000 0.390625
vt 0.562500 0.437500
vt 0.562500 0.390625
vt 0.625000 0.437500
vt 0.562500 0.390625
vt 0.625000 0.390625
vt 0.625000 0.390625
vt 0.562500 0.437500
vt 0.562500 0.390625
vt 0.500000 0.390625
vt 0.562500 0.218750
vt 0.562500 0.390625
vt 0.625000 0.218750
vt 0.625000 0.343750
vt 0.937500 0.390625
vt 0.625000 0.390625
vt 1.000000 0.437500
vt 0.937500 0.390625
vt 1.000000 0.390625
vt 0.937500 0.437500
vt 1.000000 0.437500
vt 0.937500 0.390625
vt 1.000000 0.390625
vt 0.937500 0.437500
vt 0.625000 0.343750
vt 0.500000 0.390625
vt 0.562500 0.218750
vt 0.562500 0.390625
vt 0.937500 0.343750
vt 0.937500 0.390625
vt 0.500000 0.390625
vt 0.562500 0.218750
vt 0.562500 0.390625
vt 0.625000 0.390625
vt 0.937500 0.343750
vt 0.937500 0.390625
vt 1.000000 0.437500
vt 0.937500 0.390625
vt 1.000000 0.390625
vt 0.937500 0.437500
vt 1.000000 0.437500
vt 1.000000 0.390625
vt 0.937500 0.437500
vt 0.531250 0.437500
vt 0.562500 0.406250
vt 0.562500 0.437500
vt 0.531250 0.437500
vt 0.562500 0.406250
vt 0.562500 0.437500
vt 0.531250 0.437500
vt 0.562500 0.406250
vt 0.562500 0.437500
vt 0.531250 0.437500
vt 0.562500 0.406250
vt 0.562500 0.437500
vt 0.937500 0.218750
vt 1.000000 0.218750
vt 0.562500 0.390625
vt 0.500000 0.218750
vt 0.562500 0.218750
vt 0.500000 0.390625
vt 0.562500 0.218750
vt 0.562500 0.390625
vt 0.937500 0.218750
vt 1.000000 0.218750
vt 0.625000 0.218750
vt 0.500000 0.390625
vt 0.562500 0.218750
vt 0.562500 0.390625
vt 0.625000 0.218750
vt 1.000000 0.218750
vt 0.500000 0.390625
vt 0.562500 0.218750
vt 0.562500 0.390625
vt 1.000000 0.218750
vt 0.562500 0.390625
vt 0.500000 0.218750
vt 0.562500 0.218750
vt 0.625000 0.218750
vt 0.625000 0.390625
vt 0.937500 0.437500
vt 0.625000 0.437500
vt 0.937500 0.437500
vt 0.625000 0.437500
vt 0.937500 0.437500
vt 0.937500 0.390625
vt 0.625000 0.437500
vt 0.625000 0.390625
vt 0.500000 0.500000
vt 0.500000 0.468750
vt 1.000000 0.500000
vt 0.500000 0.468750
vt 1.000000 0.500000
vt 0.500000 0.500000
vt 0.562500 0.437500
vt 0.625000 0.437500
vt 0.562500 0.437500
vt 0.625000 0.437500
vt 0.500000 0.218750
vt 0.562500 0.218750
vt 0.937500 0.343750
vt 0.937500 0.343750
vt 0.500000 0.218750
vt 0.625000 0.343750
vt 0.500000 0.218750
vt 0.625000 0.343750
vt 0.531250 0.406250
vt 0.531250 0.406250
vt 0.531250 0.406250
vt 0.531250 0.406250
vt 0.500000 0.390625
vt 0.500000 0.218750
vt 0.562500 0.218750
vt 0.500000 0.218750
vt 0.562500 0.218750
vt 0.937500 0.218750
vt 0.500000 0.218750
vt 0.937500 0.218750
vt 0.500000 0.390625
vt 0.562500 0.218750
vt 0.937500 0.390625
vt 0.625000 0.437500
vt 0.937500 0.437500
vn -1.0000 0.0000 0.0000
vn 0.0000 0.0000 -1.0000
vn 1.0000 0.0000 0.0000
vn 0.0000 0.0000 1.0000
vn 0.0000 -1.0000 0.0000
vn 0.0000 1.0000 0.0000
usemtl FURNI02
s off
f 2/1/1 3/2/1 1/3/1
f 4/4/2 7/5/2 3/6/2
f 8/7/3 5/8/3 7/9/3
f 6/10/4 1/11/4 5/12/4
f 7/13/5 1/14/5 3/15/5
f 4/16/6 6/17/6 8/18/6
f 20/19/1 11/20/1 17/21/1
f 25/22/2 16/23/2 15/24/2
f 24/25/3 13/26/3 21/27/3
f 29/28/4 10/29/4 9/30/4
f 25/31/1 55/32/1 37/33/1
f 9/30/4 54/34/4 29/28/4
f 22/35/5 39/36/5 37/37/5
f 16/38/3 22/39/3 15/40/3
f 23/41/3 21/27/3 22/39/3
f 10/42/1 18/43/1 9/44/1
f 19/45/1 17/21/1 18/43/1
f 38/46/5 18/43/5 17/21/5
f 29/47/3 52/48/3 40/49/3
f 25/22/5 38/50/5 26/51/5
f 38/52/3 43/53/3 26/54/3
f 39/55/5 29/56/5 40/57/5
f 14/58/4 30/59/4 13/60/4
f 31/61/4 29/28/4 30/59/4
f 12/62/2 26/51/2 11/63/2
f 27/64/2 25/22/2 26/51/2
f 50/65/5 47/66/5 56/67/5
f 46/68/5 55/69/5 53/70/5
f 43/71/5 49/72/5 44/73/5
f 52/74/5 42/75/5 41/76/5
f 13/60/4 47/77/4 48/78/4
f 22/79/4 55/80/4 45/81/4
f 39/82/1 47/83/1 30/84/1
f 11/63/2 43/85/2 44/86/2
f 11/20/1 49/87/1 17/21/1
f 21/88/2 56/89/2 39/90/2
f 15/24/2 53/91/2 25/22/2
f 22/39/3 46/92/3 15/40/3
f 17/93/4 51/94/4 38/95/4
f 18/43/1 42/96/1 9/44/1
f 18/97/2 52/98/2 41/99/2
f 13/26/3 50/100/3 21/27/3
f 38/101/4 34/102/4 33/103/4
f 36/104/1 37/37/1 39/36/1
f 36/105/2 40/57/2 35/106/2
f 38/107/3 35/108/3 40/109/3
f 2/1/1 4/110/1 3/2/1
f 4/4/2 8/111/2 7/5/2
f 8/7/3 6/112/3 5/8/3
f 6/10/4 2/113/4 1/11/4
f 7/13/5 5/114/5 1/14/5
f 4/16/6 2/115/6 6/17/6
f 20/19/1 12/116/1 11/20/1
f 25/22/2 28/117/2 16/23/2
f 24/25/3 14/118/3 13/26/3
f 29/28/4 32/119/4 10/29/4
f 25/31/1 53/120/1 55/32/1
f 9/30/4 42/121/4 54/34/4
f 22/35/5 21/122/5 39/36/5
f 16/38/3 23/41/3 22/39/3
f 23/41/3 24/25/3 21/27/3
f 10/42/1 19/45/1 18/43/1
f 19/45/1 20/19/1 17/21/1
f 38/46/5 40/123/5 18/43/5
f 29/47/3 54/124/3 52/48/3
f 25/22/5 37/125/5 38/50/5
f 38/52/3 51/126/3 43/53/3
f 39/55/5 30/127/5 29/56/5
f 14/58/4 31/61/4 30/59/4
f 31/61/4 32/119/4 29/28/4
f 12/62/2 27/64/2 26/51/2
f 27/64/2 28/117/2 25/22/2
f 50/65/5 48/128/5 47/66/5
f 46/68/5 45/129/5 55/69/5
f 43/71/5 51/130/5 49/72/5
f 52/74/5 54/131/5 42/75/5
f 13/60/4 30/59/4 47/77/4
f 22/79/4 37/132/4 55/80/4
f 39/82/1 56/133/1 47/83/1
f 11/63/2 26/51/2 43/85/2
f 11/20/1 44/134/1 49/87/1
f 21/88/2 50/135/2 56/89/2
f 15/24/2 46/136/2 53/91/2
f 22/39/3 45/137/3 46/92/3
f 17/93/4 49/138/4 51/94/4
f 18/43/1 41/139/1 42/96/1
f 18/97/2 40/140/2 52/98/2
f 13/26/3 48/141/3 50/100/3
f 38/101/4 37/142/4 34/102/4
f 36/104/1 34/143/1 37/37/1
f 36/105/2 39/55/2 40/57/2
f 38/107/3 33/144/3 35/108/3
